<svg xmlns="http://www.w3.org/2000/svg" viewBox="0 0 408.385 740.939" height="790.335" width="435.611">
  <path
    d="M265.012 739.066c-1.295-2.42-1.302-3.066-.036-3.066.55 0 1 .675 1 1.5 0 2.357 1.817 1.752 2.255-.75.345-1.974.49-2.035 1.176-.5 1.797 4.015-2.337 6.663-4.395 2.816zm17.835-2.816c-.07-.962-.204-2.963-.295-4.445-.092-1.483-.875-3.508-1.74-4.5-.866-.993-1.385-2.326-1.152-2.963.232-.637-.052-1.451-.63-1.81-1.373-.847-1.37-5.532.002-5.532 1.737 0 6.215 10.968 6.6 16.164.281 3.8.035 4.836-1.148 4.836-.83 0-1.565-.787-1.636-1.75zm62.63-1.25c-.34-.55.083-1 .94-1 .858 0 1.886-.034 2.284-.075.4-.041.887.409 1.084 1 .452 1.357-3.474 1.425-4.309.075zm-78.054-4.087c-.37-.598-.172-1.588.44-2.2.818-.817 1.113-.528 1.113 1.087 0 2.415-.52 2.787-1.553 1.113zm70.053-.913c-.36-.583.657-1 2.441-1 1.683 0 3.06.45 3.06 1s-1.1 1-2.442 1-2.719-.45-3.059-1zm19.5-.44c0-.858.45-1.56 1-1.56s1 .423 1 .941-.45 1.22-1 1.559c-.55.34-1-.083-1-.94zm-3.495-6.711c.722-1.882 4.348-4.058 5.536-3.324 1.394.862 1.176 3.473-.29 3.489-.688.008-2.27.286-3.515.62-1.677.45-2.127.246-1.731-.785zm33.495-.743c0-.96 2.211-3.106 3.2-3.106 1.71 0 .69 2.795-1.2 3.29-1.1.287-2 .205-2-.184zM263.274 718.5c.104-3.688 1.075-4.577 2.095-1.918 1.053 2.743.66 5.418-.794 5.418-.953 0-1.369-1.118-1.301-3.5zm102.285 1.634c-.43-.697-.513-1.537-.183-1.867.895-.895 1.871.421 1.388 1.871-.34 1.016-.575 1.016-1.205-.004zM332.101 712c-2.383-4.675-4.872-8.95-5.53-9.5-.66-.55-1.22-1.9-1.247-3-.026-1.1-.389-3.237-.806-4.75-.849-3.078 1.104-4.007 2.102-1 1.901 5.732 5.107 11.194 6.84 11.656 1.491.398 1.698.813.834 1.676-.864.864-.664 2.277.807 5.708 3.599 8.396 1.384 7.813-3-.79zm-36.125 3.74c0-1.487 3.512-3.895 4.395-3.012.698.698-2.272 4.272-3.55 4.272-.464 0-.845-.567-.845-1.26zm89-1.622c0-1.1.45-2.278 1-2.618.55-.34 1 .282 1 1.382 0 1.1-.45 2.278-1 2.618-.55.34-1-.282-1-1.382zm-108-.618c0-.825.45-1.5 1-1.5s1 .675 1 1.5-.45 1.5-1 1.5-1-.675-1-1.5zm95-.44c0-.518.45-1.22 1-1.56.55-.34 1-1.481 1-2.536s1.125-2.655 2.5-3.556c2.898-1.899 3.478-7.352 1-9.408-.825-.685-1.5-2.09-1.5-3.122 0-2.148-1.064-2.413-2.783-.695-1.892 1.892-2.71.02-.877-2.006 1.804-1.993 2.28-7.177.66-7.177-1.737 0-1.082-2.467 1-3.768 1.284-.801 2-2.332 2-4.272 0-3.485-2.3-4.879-5.132-3.11-2.657 1.66-2.526-.945.17-3.384 1.488-1.347 1.877-2.577 1.442-4.56-.329-1.496-.121-3.01.462-3.37.582-.36 1.058-1.527 1.058-2.595 0-3.261 1.419-2.181 3.69 2.809 1.639 3.601 2.319 7.613 2.813 16.588.57 10.334 1.285 14.617 4.052 24.271.501 1.748.077 2.215-2.475 2.725-1.694.339-3.08 1.108-3.08 1.708 0 .638.834.828 2 .458 1.214-.385 2-.18 2 .522 0 1.601-4.136 4.904-6.19 4.945-.93.018-1.97.483-2.31 1.033-.782 1.265-2.5 1.306-2.5.059zm6-5.178c0-.55-.45-.722-1-.382-.55.34-1 1.068-1 1.618s.45.722 1 .382c.55-.34 1-1.068 1-1.618zm1-24.882c0-.55-.45-1-1-1s-1 .45-1 1 .45 1 1 1 1-.45 1-1zm-1.69-16.238c-.296-1.506-.937-2.492-1.424-2.191-1.043.644-1.188 4.793-.202 5.779 1.243 1.243 2.171-.806 1.625-3.588zm-38.86 41.77c-.798-1.907-1.45-3.862-1.45-4.345 0-.482-.916-1.706-2.035-2.719-1.12-1.013-1.789-2.483-1.488-3.268.3-.784-.364-2.899-1.477-4.7-2.1-3.397-1.81-6.5.607-6.5.837 0 1.393 1.048 1.393 2.625 0 2.206 3.136 10.842 5.938 16.352.414.813 1.792 1.723 3.063 2.023 2.19.517 2.22.637.584 2.273-2.5 2.5-3.507 2.158-5.136-1.74zm-63.846.878c-.833-2.17.396-4.02 1.506-2.267 1.126 1.778 1.125 3.857-.003 3.857-.491 0-1.168-.716-1.503-1.59zm-14.525-2.089c-.043-.648-.72-1.82-1.504-2.604-1.631-1.63-4.575-8.284-4.575-10.34 0-.757.45-1.377 1-1.377s1 .478 1 1.062c0 .584 1.16 3.515 2.58 6.513 1.418 2.999 2.353 6.008 2.078 6.688-.357.885-.522.901-.579.058zm86.071-.271c.43-1.29 1.802-1.52 1.925-.325.042.399-.465.905-1.125 1.125-.66.22-1.02-.14-.8-.8zm-73.15-5.55c0-.825.45-1.5 1-1.5s1 .675 1 1.5-.45 1.5-1 1.5-1-.675-1-1.5zm93-.465c0-1.195 3.316-3.035 5.47-3.035 1.29 0 1.394.387.53 2-1.084 2.027-6 2.875-6 1.035zm-95.802-6.153c-.574-2.264-.788-4.785-.475-5.6.313-.816-.056-1.87-.819-2.341-.981-.607-1.075-1.17-.322-1.923 1.84-1.839 4.105 2.051 4.794 8.232.507 4.545.351 5.75-.745 5.75-.79 0-1.838-1.775-2.433-4.118zm37.802 2.725c0-1.696 2.705-2.894 3.527-1.563.325.526.313 1.406-.027 1.956-.924 1.495-3.5 1.206-3.5-.393zm-18.984-1.357c-.008-1.237.434-2.25.984-2.25 1.253 0 1.253 1.061 0 3-.784 1.213-.972 1.07-.984-.75zm71.984-3.015c0-2.132 5.584-6.984 6.725-5.844.335.335-1.041 2.259-3.058 4.276-3.226 3.226-3.667 3.414-3.667 1.568zm-48.462-1.297c.946-1.529 5.442-3.068 6.698-2.292 1.52.94-2.068 3.354-4.986 3.354-1.415 0-2.104-.427-1.712-1.062zm-54.84-1.331c-.41-1.041-.51-2.129-.221-2.417.912-.912 1.714.583 1.332 2.482-.35 1.74-.404 1.737-1.112-.065zm-6.698-3.548c0-.517.45-1.219 1-1.559.55-.34 1 .084 1 .941s-.45 1.559-1 1.559-1-.423-1-.94zm34.67-1.368c-.405-1.545-2.522-4.745-4.704-7.112-2.18-2.366-3.966-4.95-3.966-5.74 0-.792-.455-1.894-1.012-2.451-.557-.557-1.173-2.91-1.37-5.227-.196-2.319-1.032-4.99-1.857-5.938-.825-.948-1.31-2.244-1.077-2.881.232-.637-.052-1.451-.63-1.81-1.373-.847-1.37-5.532.002-5.532 1.599 0 6.212 10.811 6.532 15.308.156 2.179.762 4.441 1.348 5.027.586.586 1.065 1.839 1.065 2.784 0 2.627 3.311 7.864 5 7.907.825.02 2.373.698 3.441 1.506 1.068.807 2.755 1.468 3.75 1.468 2.218 0 2.405 2.834.242 3.664-.862.331-2.077.092-2.7-.531-1.602-1.602-2.528-1.408-2.956.617-.263 1.248-.58.944-1.107-1.06zm43.687.077c-.354-.573.433-1.87 1.75-2.883 3.01-2.315 3.895-2.345 3.886-.135-.01 2.106-4.66 4.597-5.636 3.018zm8.643-1.493c0-.491.689-1.766 1.53-2.834 1.48-1.88 1.52-1.864 1.25.48-.258 2.235-2.78 4.37-2.78 2.354zm-71.316-2.925c-.376-.376-.684-1.77-.684-3.1 0-2.768 2.3-2.615 2.844.19.383 1.975-1.099 3.972-2.16 2.91zm100.348-.1c.058-1.355 2.665-4.25 3.829-4.25 1.687 0 1.384 1.468-.69 3.345-1.953 1.768-3.19 2.125-3.139.905zM331.976 677c-1.375-1.075-3.095-1.965-3.823-1.978-.728-.012-1.173-.804-.988-1.76.42-2.181 3.811-2.989 3.811-.908 0 .826 1.125 2.386 2.5 3.467 2.49 1.959 3.178 3.2 1.75 3.157-.412-.012-1.875-.902-3.25-1.978zm-77-1.375c0-.756-.28-2.781-.625-4.5-.543-2.716-.346-3.125 1.5-3.125 1.223 0 2.125.637 2.125 1.5 0 .825.45 1.5 1 1.5s1-.927 1-2.059c0-1.132.45-1.78 1-1.441 1.774 1.096 1.066 4.525-1.454 7.045-2.733 2.733-4.546 3.164-4.546 1.08zm90.597.531c-.346-.56-.142-1.319.454-1.687 1.537-.95 2.53.351 1.246 1.635-.719.718-1.278.735-1.7.052zm-25.597-2.656c0-.825.45-1.5 1-1.5s1 .675 1 1.5-.45 1.5-1 1.5-1-.675-1-1.5zm40 .5c0-.55.927-1 2.06-1 1.132 0 1.78.45 1.44 1-.34.55-1.266 1-2.059 1-.792 0-1.44-.45-1.44-1zm-20-3.083c0-2.437 2.337-2.093 2.824.416.191.987-.32 1.667-1.25 1.667-.928 0-1.574-.855-1.574-2.083zm-22.396-1.507c-.833-2.17.396-4.02 1.506-2.267 1.126 1.778 1.125 3.857-.003 3.857-.491 0-1.168-.716-1.503-1.59zm37.063-.077c-.367-.366-.667-1.321-.667-2.122 0-1.18.284-1.22 1.5-.211.825.685 1.5 1.64 1.5 2.122 0 1.036-1.383 1.161-2.333.211zm6.333-1.333c0-.55.702-1 1.56-1 .857 0 1.28.45.94 1-.34.55-1.041 1-1.559 1-.517 0-.94-.45-.94-1zm-57.92-.679c-.044-.648-.721-1.82-1.505-2.604-1.631-1.63-4.575-8.284-4.575-10.34 0-.757.45-1.377 1-1.377s1 .478 1 1.062c0 .584 1.16 3.515 2.58 6.513 1.418 2.999 2.353 6.008 2.078 6.688-.357.885-.522.901-.579.058zm43.92-.821c0-.917.484-1.505 1.075-1.308.592.197 1.075.786 1.075 1.308 0 .523-.483 1.111-1.075 1.308-.59.197-1.075-.391-1.075-1.308zm-6.984-2.25c.008-.412.44-1.421.958-2.242.713-1.127 1.225-1.21 2.098-.337.635.635.852 1.644.482 2.242-.757 1.225-3.562 1.492-3.538.337zm-80.57-1.337c-.369-.598-.17-1.588.441-2.2.818-.817 1.113-.528 1.113 1.087 0 2.415-.52 2.787-1.553 1.113zm95.554.15c0-.584 1.035-1.063 2.3-1.063s2.884-.562 3.597-1.25c1.05-1.01 1.23-.867.942.75-.254 1.43-1.279 2.09-3.597 2.313-1.82.176-3.242-.153-3.242-.75zm-39-1.563c0-.825.45-1.5 1-1.5s1 .675 1 1.5-.45 1.5-1 1.5-1-.675-1-1.5zm51-1.5c0-.55.477-1 1.06-1 .582 0 .78.45.44 1s-.816 1-1.059 1c-.242 0-.44-.45-.44-1zm-53.802-5.118c-.574-2.264-.788-4.785-.475-5.6.313-.816-.056-1.87-.819-2.341-.981-.607-1.075-1.17-.322-1.923 1.84-1.839 4.105 2.051 4.794 8.232.507 4.545.351 5.75-.745 5.75-.79 0-1.838-1.775-2.433-4.118zm44.802 2.225c0-1.014 3.046-2.395 3.744-1.697.251.251.16.937-.203 1.524-.797 1.29-3.54 1.425-3.54.173zM255.274 650.5c.104-3.688 1.075-4.577 2.095-1.918 1.053 2.743.66 5.418-.794 5.418-.953 0-1.369-1.118-1.301-3.5zm116.702.809c0-2.568-.064-2.603-1.418-.752-1.535 2.1-3.314 1.426-1.957-.74.454-.725.962-2.442 1.13-3.817.664-5.418 1.538-5.261 2.802.5 1.65 7.524 1.648 7.5.443 7.5-.55 0-1-1.211-1-2.691zm-71.303-.702c-.409-1.041-.508-2.129-.22-2.417.912-.912 1.714.583 1.332 2.482-.35 1.74-.404 1.737-1.112-.065zm62.303.393c0-.55-.9-1-2-1-2.363 0-2.67-1.806-.452-2.657.894-.343 2.149.2 2.969 1.282 1.689 2.23 1.853 3.375.483 3.375-.55 0-1-.45-1-1zm-69-4.5c0-.825.45-1.5 1-1.5s1 .675 1 1.5-.45 1.5-1 1.5-1-.675-1-1.5zm-25-1c0-.825.45-1.5 1-1.5s1 .675 1 1.5-.45 1.5-1 1.5-1-.675-1-1.5zm-2.396-4.09c-.833-2.17.396-4.02 1.506-2.267 1.126 1.778 1.125 3.857-.003 3.857-.491 0-1.168-.716-1.503-1.59zm43.08-.06c-.376-.376-.684-1.77-.684-3.1 0-2.768 2.3-2.615 2.844.19.383 1.975-1.099 3.972-2.16 2.91zm-57.605-2.029c-.043-.648-.72-1.82-1.504-2.604-1.631-1.63-4.575-8.284-4.575-10.34 0-.757.45-1.377 1-1.377s1 .478 1 1.062c0 .584 1.16 3.515 2.58 6.513 1.418 2.998 2.353 6.008 2.078 6.688-.357.885-.522.901-.579.058zm114.921-2.228c0-.98.9-2.598 2-3.593 1.964-1.777 2-1.747 2 1.632 0 2.726-.416 3.474-2 3.593-1.308.099-2-.466-2-1.632zm-102-3.593c0-.825.45-1.5 1-1.5s1 .675 1 1.5-.45 1.5-1 1.5-1-.675-1-1.5zm101-3.521c0-2.038.495-2.979 1.568-2.979 1.163 0 1.39-.58.877-2.25-.379-1.237-1.066-2.723-1.525-3.302-1.083-1.363-.083-5.171 1.52-5.786.683-.262 1.847-.103 2.586.354 1.125.695 1.12 1.51-.026 4.984-1.116 3.382-1.13 4.301-.078 4.952 1.879 1.16.471 4.548-2.44 5.875-2.34 1.065-2.482.96-2.482-1.848zm-103.802-3.097c-.574-2.264-.788-4.785-.475-5.6.313-.816-.056-1.87-.819-2.341-.981-.607-1.075-1.17-.322-1.923 1.84-1.839 4.105 2.051 4.794 8.232.507 4.545.351 5.75-.745 5.75-.79 0-1.838-1.775-2.433-4.118zm36.13.615c-1.77-3.503-5.643-18.515-4.956-19.202 1.272-1.272 2.444 1.272 4.6 9.987 2.162 8.735 2.331 13.13.355 9.215zm21.047-2.74c-1.433-2.77-1.772-2.975-2.323-1.403-.596 1.697-.752 1.712-2.013.193-1.165-1.404-1.131-1.883.224-3.238 1.454-1.454 1.368-2.2-1-8.7-3.103-8.521-2.867-8.182-4.654-6.699-1.17.97-1.573.762-2.147-1.107-1.448-4.714-7.77-17.803-8.6-17.803-.474 0-.862-.675-.862-1.5 0-.833.89-1.5 2-1.5 1.1 0 1.993.563 1.983 1.25-.024 1.728 6.36 15.673 7.194 15.716.372.019.849-.753 1.06-1.716.372-1.7 5.557 8.097 7.278 13.75.418 1.375 1.824 4.834 3.123 7.686 1.3 2.852 2.362 5.89 2.362 6.75 0 2.612-1.85 1.755-3.625-1.68zm21.286 1.504c-.852-1.38.538-6.261 1.783-6.261.777 0 1.052 1.078.768 3.012-.45 3.067-1.688 4.644-2.55 3.249zm-90.964-3.654c-.409-1.041-.508-2.129-.22-2.417.912-.912 1.714.583 1.332 2.482-.35 1.74-.404 1.737-1.112-.065zm102.939-.72c-.995-1.162-1.433-2.488-.973-2.946 1.168-1.162 5.789 2.52 4.922 3.922-1.011 1.636-1.901 1.416-3.95-.976zm-109.636-2.828c0-.518.45-1.22 1-1.559.55-.34 1 .084 1 .941s-.45 1.559-1 1.559-1-.423-1-.941zm15.684-5.709c-.376-.376-.684-1.77-.684-3.1 0-2.768 2.3-2.615 2.844.19.383 1.975-1.099 3.972-2.16 2.91zm109.316-2.777c0-1.415-.337-2.587-.75-2.604-.412-.018-1.53-1.105-2.483-2.417-1.566-2.154-1.593-2.723-.275-5.877.802-1.92 2.032-3.696 2.734-3.946.7-.25.958-.795.572-1.211-.386-.416-1.359-.1-2.161.703-.902.902-2.643 1.285-4.56 1.004-3.747-.55-5.03-2.163-2.291-2.88 1.414-.369 2.174-1.693 2.638-4.594.882-5.514-.637-6.776-3.772-3.134-2.724 3.165-4.558 2.807-2.5-.489 1.122-1.796.997-2.34-.952-4.157-1.234-1.15-1.97-2.533-1.636-3.074.335-.542.114-1.58-.49-2.308-.816-.984-.71-1.646.414-2.579 1.889-1.567 1.932-3.417.116-4.924-.769-.638-1.166-2.045-.882-3.128.283-1.083.015-2.57-.595-3.305-1.477-1.78-.433-2.653 3.175-2.653 3.869 0 7.698 4.052 7.698 8.145 0 2.178.556 3.188 1.955 3.554 1.613.421 1.887 1.197 1.566 4.426-.307 3.086.102 4.407 1.93 6.235 2.017 2.016 2.301 3.225 2.174 9.23-.1 4.69-.693 7.685-1.844 9.323-1.788 2.542-1.364 5.07.532 3.174 1.877-1.877 2.69-1.2 2.592 2.163-.052 1.788.06 4.133.25 5.212.22 1.245-.294 2.093-1.405 2.323-1.307.27-1.75-.29-1.75-2.212zm-2-24.514c0-2.168-.45-4.22-1-4.559-.61-.377-1 1.156-1 3.941 0 2.507.45 4.559 1 4.559s1-1.773 1-3.941zm-5.18-7.887c.338-2.296-1.251-2.817-3.755-1.233-1.204.762-1.22 1.17-.1 2.518 1.714 2.065 3.447 1.487 3.855-1.285zm-.049-7.36c-.618-1.854-2.77-2.161-2.77-.395 0 .87.712 1.583 1.583 1.583.87 0 1.405-.534 1.187-1.187zm-1-7c-.618-1.854-2.77-2.161-2.77-.395 0 .87.712 1.583 1.583 1.583.87 0 1.405-.534 1.187-1.187zm-20.77 44.771c0-.87.712-1.583 1.583-1.583 1.766 0 1.458 2.153-.396 2.77-.653.219-1.188-.316-1.188-1.187zm-158-4.869c0-.943-.963-2.677-2.14-3.853-1.698-1.699-15.86-31.524-15.86-33.402 0-.611-8.878-22.014-14.502-34.959-2.39-5.5-5.56-13.484-7.048-17.742l-2.704-7.741-4.123.62c-2.268.34-4.551 1.011-5.074 1.49-.522.48-2.204.873-3.736.873-2.22 0-5.226-2.417-14.78-11.885-13.203-13.085-16.216-14.667-22.228-11.668-1.712.854-3.907 1.553-4.877 1.553-2.837 0-4.929 1.107-4.929 2.607 0 2.503-2.459 1.452-4.343-1.857l-1.843-3.238-1.907 2.355c-1.049 1.295-1.907 2.953-1.907 3.685 0 2.018-1.907 2.77-3.556 1.401-1.162-.964-1.216-1.522-.26-2.675.994-1.197.869-1.396-.701-1.117-1.355.24-2.416-.678-3.649-3.161-.955-1.925-1.76-4.26-1.786-5.191-.026-.93-.498-1.97-1.048-2.309-.55-.34-1-1.443-1-2.452s-.703-2.104-1.563-2.434c-.86-.33-1.271-1.073-.914-1.65.357-.579.122-1.687-.523-2.464-.644-.777-.87-1.902-.5-2.5.37-.598.21-1.646-.357-2.328-1.587-1.913-5.719-15.863-5.53-18.672.092-1.375-.22-2.981-.695-3.569-.474-.588-3.378-8.604-6.452-17.813-3.075-9.21-6.463-18.778-7.528-21.264-1.066-2.486-1.938-5.176-1.938-5.979 0-.802-.84-2.36-1.867-3.463-7.248-7.78-21.015-52.405-18.557-60.15.711-2.24 2.713-2.222 8.939.087 11.988 4.446 24.779 10.805 34.805 17.306 7.845 5.087 8.383 5.027 10.458-1.16 2.267-6.763 6.222-23.936 6.222-27.017 0-2.108-2.315-6.884-7.17-14.795C53.367 290.179 40.9 265.97 28.948 239.5c-6.368-14.104-16.705-46.921-18.426-58.5-.368-2.475-1.084-5.625-1.59-7-1.154-3.127-6.147-46.882-5.475-47.97.271-.44.054-3.213-.483-6.164C1.995 114.485-.117 80.44.005 72c.036-2.475.74-7.425 1.564-11 .824-3.575 1.712-9.2 1.972-12.5.952-12.071 4.7-34.552 6.67-40C11.666 4.474 15.904 0 18.263 0c3.851 0 30.289 11.72 48.213 21.372 1.65.889 3.63 1.618 4.4 1.622 3.13.014 28.986 19.376 39.73 29.752 2.707 2.615 7.749 7.166 11.205 10.114 7.104 6.062 23.165 25.586 23.165 28.16 0 .931 1.483 3.67 3.296 6.086 1.813 2.417 6.58 9.867 10.593 16.557 7.782 12.97 11.67 17.679 12.582 15.237.288-.77 1.56-5.675 2.83-10.9 2.085-8.59 2.54-9.528 4.756-9.793 2.887-.344 13.377 7.868 18.99 14.87 4.57 5.697 15.35 24.245 17.1 29.423.745 2.2 2.18 4.9 3.192 6 2.657 2.89 6.24 10.24 8.084 16.586 1.223 4.205 2.95 6.904 7.338 11.462 15.647 16.254 35.832 37.85 36.568 39.123.943 1.63-.855 4.329-2.883 4.329-2.835 0-13.81 6.693-16.396 10-3.87 4.947-5.05 9.161-5.05 18.033 0 7.052-.187 7.783-2.132 8.291-1.674.438-1.992 1.053-1.478 2.867 2.788 9.855 2.845 25.919.121 34.436-.572 1.792.633 3.158 7.655 8.675 9.338 7.336 14.796 11.708 22.775 18.242 6.424 5.262 8.014 5.545 8.184 1.456.07-1.65.215-3.337.325-3.75.11-.412.56-3 1.001-5.75.441-2.75 1.123-5.45 1.515-6 .392-.55.74-2.633.771-4.629.072-4.471 6.425-20.35 9.416-23.534 3.83-4.076 5.9-3.105 14.745 6.913 4.492 5.088 9.234 10.375 10.538 11.75 1.304 1.375 3.281 4.33 4.394 6.567s2.71 4.635 3.546 5.33c.837.695 2.026 2.914 2.643 4.933.616 2.019 1.51 4.57 1.987 5.67 1.415 3.268 3.994 14.9 4.004 18.064.005 1.615 1.09 5.256 2.41 8.092 1.32 2.835 2.73 8.235 3.13 12 .548 5.145 1.72 8.706 4.722 14.344 2.196 4.125 7.136 13.575 10.978 21 3.843 7.425 8.238 15.75 9.769 18.5 3.833 6.89 14.74 27.724 18.322 35 3.993 8.112 12.913 23.485 18.494 31.875l4.574 6.876-2.253 1.824c-2.198 1.78-2.407 1.76-8.455-.798-3.41-1.442-6.876-3.171-7.7-3.842-.826-.671-6.226-3.832-12-7.025-5.776-3.192-12.75-7.443-15.5-9.445-6.866-5-14.108-9.024-14.869-8.263-.347.347-.646 1.569-.663 2.715-.034 2.224-1.224 3.997-4.618 6.882-1.504 1.279-4.398 1.94-10.007 2.286-7.763.479-7.942.437-11.08-2.632-3.412-3.336-9.264-14.108-9.264-17.054 0-.98-.396-2.026-.88-2.325-.485-.3-1.115-1.564-1.402-2.81-.287-1.245-1.712-5.414-3.167-9.264-3.781-10.003-7.05-19.72-9.926-29.5-5.353-18.21-6.649-20.992-11.051-23.742-2.24-1.4-7.724-5.381-12.185-8.848-8.314-6.46-11.869-8.095-14.235-6.551-1.112.725-1 2.166.64 8.26 1.484 5.52 1.804 8.726 1.264 12.716-.468 3.466-.254 7.132.61 10.468 1.883 7.257 1.657 13.346-.76 20.504-1.635 4.843-3.101 7.058-6.72 10.15-7.02 6.001-18.012 8.813-23.327 5.968-1.807-.967-1.986-.791-1.784 1.75.469 5.89-.181 8.13-3.648 12.58-3.748 4.812-9.209 8.15-11.74 7.179-.822-.316-3.377.387-5.678 1.56-3.896 1.988-4.476 2.036-8.431.688-8.07-2.75-11.916-5.936-13.932-11.54-1.018-2.833-2.255-5.4-2.75-5.705-.493-.305-.968 2.284-1.053 5.754-.222 9.004.064 10.87 2.105 13.75 2.83 3.992 21.05 40.054 21.05 41.662 0 .79 1.203 3.34 2.672 5.667 5.92 9.373 6.11 17.764.554 24.545-2.449 2.988-3.606 3.637-6.12 3.432-2.052-.168-3.798.445-5.167 1.815-2.334 2.333-6.652 1.95-10.643-.943-2.8-2.03-3.057-4.495-.38-3.646 3.141.997 7.084-.46 7.084-2.617 0-1.582.34-1.745 1.898-.91 1.528.817 2.198.558 3.435-1.33 1.146-1.75 1.248-2.635.402-3.481-1.361-1.361-5.735-1.52-5.735-.208 0 1.588-6.128 4.073-10.043 4.073h-3.735l.41 8.75c.46 9.86 1.293 21.505 1.804 25.25.188 1.375.829 5.875 1.425 10 1.8 12.441 1.745 18.823-.177 20.745-1.578 1.578-1.684 1.576-1.684-.03zM168.818 570c-1.114-3.3-2.259-6-2.543-6-.697 0 .304 3.807 2.185 8.308 2.394 5.73 2.608 4.353.358-2.308zm19.157-34.481c.825-.668 2.288-1.494 3.25-1.836 1.925-.682 2.349-3.195.71-4.208-.573-.354-.767-1.508-.431-2.564.407-1.284.041-2.139-1.104-2.578-2.09-.802-4.725 2.38-4.067 4.912.372 1.434-.021 1.639-2.202 1.147-3.858-.87-8.156-2.767-8.156-3.601 0-1.041-9.311-9.813-9.847-9.277-.618.618 4.739 8.35 8.097 11.686 1.513 1.503 2.802 3.31 2.866 4.016.063.706.22 1.734.347 2.284.128.55.301 1.343.385 1.762.22 1.097 8.374-.303 10.152-1.743zm17-12.46c0-.518-.45-1.22-1-1.559-.55-.34-1 .084-1 .941s.45 1.559 1 1.559 1-.423 1-.941zm-3.657-8.809c-.682-2.544-3.215-5.71-3.967-4.96-.99.991 1.697 6.71 3.152 6.71.736 0 1.084-.748.815-1.75zm-37.343-1.781c0-.843-.675-1.79-1.5-2.107-.825-.317-1.5-1.38-1.5-2.362 0-.982-.66-2.04-1.468-2.35-1.666-.639-3.265 1.236-1.887 2.212.496.35 1.689 1.876 2.652 3.388 1.923 3.023 3.703 3.609 3.703 1.219zm2-4.862c0-.766-.675-1.652-1.5-1.969-1.503-.577-2.118 1.41-.833 2.695 1.121 1.122 2.333.744 2.333-.726zm-24.335-6.04c-.331-.862-1.066-1.567-1.633-1.567-1.15 0-1.414 3.285-.348 4.35 1.098 1.098 2.639-1.067 1.98-2.783zm32.335 2.492c0-1.18-1.95-2.442-2.666-1.726-.717.717.546 2.667 1.725 2.667a.944.944 0 00.941-.941zm20.496-1.309c-.406-1.237-.796-4.011-.867-6.163-.07-2.153-.656-4.09-1.3-4.307-.746-.251-.976.353-.633 1.663.305 1.17.056 2.057-.579 2.057-1.637 0-1.376 1.446.982 5.443 2.382 4.038 3.49 4.642 2.397 1.307zm-22.434-5.27c2.486-.789 2.517-2.48.045-2.48-2.167 0-3.173 1.985-2.957 5.832l.15 2.668.412-2.702c.237-1.555 1.235-2.964 2.35-3.318zm-44.04 2.27c3.313-1.51 4.944-2.861 4.958-4.107.02-1.836-.116-1.836-4.602.011-.724.298-.95-.445-.633-2.096.269-1.407 1.144-2.558 1.945-2.558 1.774 0 1.35-3.154-.506-3.772-.725-.242-1.563.506-1.866 1.667-.303 1.158-1.298 2.105-2.212 2.105-.913 0-2.653.695-3.866 1.545-2.53 1.772-5.481.741-7.23-2.527-1.56-2.914-7.952-7.476-8.998-6.422-.531.535 1.742 3.66 5.575 7.661 6.32 6.598 6.566 6.742 10.443 6.122 2.655-.424 3.97-.261 3.97.493 0 .62-.9 1.128-2 1.128-1.11 0-2 .667-2 1.5 0 2.025 1.215 1.896 7.021-.75zm46.478.25c.34-.55.142-1-.44-1-.583 0-1.06.45-1.06 1s.199 1 .441 1c.243 0 .72-.45 1.06-1zm-30.5-3c0-.55-.45-1-1-1s-1 .45-1 1 .45 1 1 1 1-.45 1-1zm24.153-4.525c0-1.346-2.9-3.06-3.747-2.214-.873.873 1.577 3.912 2.82 3.497.508-.17.925-.747.927-1.283zm18.789-3.693c-.73-1.805-1.579-3.507-1.885-3.782-.306-.275-1.039-1.373-1.628-2.44-1.309-2.37-3.429-3.224-3.429-1.38 0 1.771 7.004 12.15 7.718 11.436.303-.304-.046-2.029-.776-3.834zm-64.071.64c.717-.638-.887-4.95-2.713-7.293-1.737-2.228-2.067-2.291-5.503-1.049-2.01.727-3.655 1.86-3.655 2.517 0 .658 1.612 2.611 3.582 4.34 2.64 2.32 4.152 2.97 5.75 2.48 1.193-.366 2.335-.814 2.539-.995zm23.166-2.458c1.964-1.965 1.895-3.964-.137-3.964-1.71 0-5.141 3.8-4.447 4.923.986 1.595 2.305 1.319 4.584-.96zm15.963-.405c0-.793-.419-1.7-.93-2.016-1.19-.735-2.385 1.137-1.57 2.457.92 1.488 2.5 1.21 2.5-.441zm-85.426-3.333c-1.728-1.65-1.755-1.623-.61.61.66 1.284 1.473 2.061 1.808 1.726.335-.335-.204-1.386-1.198-2.336zm112.26 2.014c-.58-1.322-5.257-10.721-5.552-11.157-.155-.229-.569-.13-.92.221-.775.776 4.798 11.69 5.972 11.694.458 0 .683-.34.5-.758zM66.976 482c-.639-1.194-1.387-1.946-1.662-1.671-.275.275.023 1.477.662 2.671.64 1.194 1.387 1.946 1.662 1.671.275-.275-.023-1.477-.662-2.671zm61.286 1.698c.599-1.56-1.62-7.169-3.23-8.164-1.338-.827-4.056 1.153-4.056 2.954 0 1.827 3.933 6.512 5.466 6.512.726 0 1.545-.586 1.82-1.302zm30.046-3.63c1.199-1.199-.057-3.068-2.062-3.068-1.819 0-5.27 2.803-5.27 4.28 0 1.126 5.983.137 7.332-1.212zm225.378-1.07c.137-1.957-.26-2.998-1.143-2.998-1.892 0-2.832 2.976-1.461 4.627 1.724 2.077 2.373 1.671 2.604-1.629zm-279.71 1.449c0-1.555-5.736-7.447-7.25-7.447-2.485 0-2.193.947 1.447 4.702 2.821 2.911 5.803 4.322 5.803 2.745zm11.706-3c2.97-1.406 5.649-3.207 5.954-4.003.811-2.113-.342-5.846-2.647-8.568l-2.013-2.376-2 2.36c-2.378 2.808-2.562 5.429-.5 7.14.825.685 1.484 1.752 1.464 2.372-.02.62-1.095-.168-2.39-1.751-2.32-2.837-2.418-2.859-6.643-1.5-2.358.758-4.444 1.863-4.634 2.455-.499 1.546 4.292 6.424 6.31 6.424.935 0 4.13-1.15 7.099-2.554zM82.976 476c0-.55-.675-1-1.5-1s-1.5.45-1.5 1 .675 1 1.5 1 1.5-.45 1.5-1zm96 .047c0-1.282-2.288-6.42-3.14-7.05-.63-.466-2.3-3.302-7.878-13.366-1.629-2.94-2.423-3.59-3.306-2.707-.883.884-.787 1.813.4 3.87.858 1.488 2.655 4.73 3.993 7.203 1.337 2.474 2.68 4.724 2.984 5 .304.277 1.578 2.19 2.832 4.253 2.159 3.553 4.115 4.883 4.115 2.797zM329.266 475c-.288-1.1-.92-2-1.406-2-1.046 0-1.082.319-.277 2.418.881 2.296 2.3 1.944 1.683-.418zm-254.29-3.5c0-.825-.45-1.5-1-1.5s-1 .675-1 1.5.45 1.5 1 1.5 1-.675 1-1.5zm89 .469c0-1.198-2.82-2.482-3.643-1.66-.876.877.61 2.691 2.202 2.691.793 0 1.441-.464 1.441-1.031zm-69.643-.552c1.229-.472.842-1.527-2.012-5.5-1.943-2.705-3.827-4.923-4.188-4.93-.361-.009-1.67-.286-2.907-.617-3.637-.975-2.715 1.589 2.463 6.846 2.592 2.631 4.805 4.784 4.918 4.784.113 0 .89-.263 1.726-.583zm12.435-3.78c1.181-1.181.85-2.132-2.245-6.439l-3.63-5.053-4.958 2.061c-2.727 1.133-4.954 2.563-4.948 3.177.01.615 1.81 2.997 4.007 5.295 3.691 3.86 4.24 4.109 7.192 3.262 1.758-.504 3.82-1.54 4.582-2.303zm20.666-.887c-.386-1.787-1.556-4.937-2.6-7-1.044-2.062-1.777-3.78-1.628-3.816.149-.037 3.195-.168 6.77-.293 6.514-.226 12.04-2.538 11.967-5.006-.045-1.543-3.11-5.096-5.028-5.83-.86-.329-3.334.24-5.5 1.265-5.51 2.606-7.973 2.408-10.199-.82-3.636-5.274-12.203-21.59-18.77-35.75-2.04-4.4-3.934-7.393-4.206-6.651-.273.741-.026 2.316.548 3.5.575 1.183 2.25 5.301 3.723 9.151 3.3 8.624 10.59 23.878 13.496 28.245 1.909 2.869 1.973 3.316.552 3.862-.885.34-2.258.078-3.052-.581-1.565-1.3-3.926-.475-2.988 1.043.317.512-.042.931-.796.931-.755 0-2.622 1.304-4.15 2.898-3.14 3.28-2.859 4.502 2.356 10.212 2.536 2.776 3.165 3.037 4.55 1.888 3.102-2.575 3.756-4.954 2.068-7.53-2.142-3.27-2.041-3.475 1.68-3.418 3.364.052 4.17 1.25 9.562 14.2 1.562 3.752 2.5 3.467 1.645-.5zm202.804-1.155c-.13-2.147-.356-4-.5-4.117-.144-.117-1.918-.512-3.943-.878l-3.681-.665.181 3.783c.209 4.356 2.11 6.373 5.681 6.026 2.246-.22 2.476-.642 2.262-4.149zm-150.262 2.855c0-1.665-3.386-6.762-3.758-5.657-.746 2.208.721 6.207 2.277 6.207.815 0 1.481-.247 1.481-.55zm158.851-.548c2.89-1.007 3.15-1.461 3.15-5.5 0-3.69-.314-4.402-1.942-4.402-1.067 0-2.219.45-2.559 1-.34.55-1.505 1-2.59 1-2.356 0-3.636 2.674-2.042 4.267.623.623 1.132 1.943 1.132 2.933 0 2.099.598 2.185 4.851.702zm-181.85-1.961c0-.518-.676-.941-1.5-.941-1.547 0-1.987 1.18-.861 2.306.799.8 2.36-.104 2.36-1.365zm51.527-.985c.354-.574-.103-2.186-1.017-3.58-2.22-3.387-1.511-4.736 3.903-7.44 5.724-2.859 8.848-6.09 8.008-8.28-.806-2.1-2.422-2.157-2.422-.086 0 1.062-.726 1.458-2.25 1.226-1.32-.202-2.12-.93-1.935-1.763.365-1.65-2.773-9.033-3.839-9.033-.396 0-1.007-1.792-1.357-3.983-.436-2.724-1.44-4.509-3.178-5.648-1.47-.963-2.313-2.259-2-3.075.776-2.022-3.256-9.433-5.444-10.005-1.253-.328-1.79-1.301-1.672-3.027.097-1.399-.33-2.724-.947-2.944-1.454-.518-2.61 3.85-1.352 5.108.614.613.212 1.756-1.112 3.166-1.435 1.527-2.125 3.697-2.243 7.051-.169 4.796-.134 4.852 3.33 5.47 2.156.384 2.636.674 1.25.755-1.238.073-2.25.612-2.25 1.198 0 1.432 1.871 4.981 3.92 7.434 1.946 2.33 4.517 9.396 3.712 10.2-.303.304-1.514-1.08-2.69-3.074-1.177-1.994-2.86-3.626-3.741-3.626-1.222 0-1.325-.277-.433-1.169.892-.892.66-2.077-.984-5-2.175-3.87-4.785-5.123-4.785-2.296 0 .845-.63 2.532-1.401 3.75-2.037 3.218-2.953 8.625-1.877 11.084.512 1.172 1.947 4.22 3.188 6.775 2.2 4.53 2.35 4.63 6.113 4.126 5.36-.719 8.72.333 9.533 2.982 1.323 4.315 4.41 6.23 5.972 3.704zm-12.987-11.89c-.814-1.317 3.721-3.282 8.46-3.665l3.5-.284-2.361 1.942c-1.299 1.067-3.175 1.941-4.169 1.941-.994 0-2.473.256-3.288.568-.814.313-1.778.087-2.142-.502zm125.46 11.157c0-2.333-2.887-6.412-4.035-5.702-1.006.622 1.946 7.479 3.22 7.479.448 0 .814-.8.814-1.777zm-169.608-.05c.887-1.434-.566-5.173-2.01-5.173-.76 0-1.383-.848-1.383-1.883 0-2.801-3.738-3.291-8.107-1.062-2.097 1.07-4.506 1.945-5.353 1.945-.847 0-1.54.45-1.54 1s.563 1.006 1.25 1.013c.688.007 3.5 1.096 6.25 2.421 5.09 2.452 9.971 3.231 10.893 1.74zM383.976 464c0-.55-.45-1-1-1s-1 .45-1 1 .45 1 1 1 1-.45 1-1zm-37.627-1.75c.414-1.429.241-7.172-.278-9.25-.471-1.885-2.067 3.295-2.08 6.75-.015 4.265 1.409 5.775 2.358 2.5zm-172.373-3.167c0-2.03-4.18-10.498-5.785-11.717-2.673-2.03-3.197-1.615-2.065 1.634.575 1.65 1.384 3 1.796 3 .413 0 1.562 1.8 2.554 4 1.657 3.673 3.5 5.297 3.5 3.083zm-89.664-1.752c.368-.368-.08-1.495-.994-2.506-.914-1.01-1.405-2.095-1.09-2.41.315-.315 1.597.813 2.848 2.506 1.252 1.694 3.077 3.079 4.055 3.079 2.753 0 8.845-3.218 8.845-4.672 0-1.604-5.084-9.054-6.617-9.696-.614-.257-3.41.63-6.21 1.97-3.615 1.73-4.927 2.874-4.52 3.937.482 1.255.097 1.224-2.37-.192-1.643-.942-3.715-1.395-4.685-1.023-1.516.582-1.266 1.244 1.952 5.172 3.45 4.21 6.904 5.717 8.786 3.835zm244.184-4.081c-.389-2.612-1.17-5.312-1.736-6-1.495-1.816-9.784-1.654-9.784.191 0 .793.438 1.712.973 2.042.535.33 1.453 2.382 2.039 4.56 1.02 3.788 1.24 3.957 5.14 3.957h4.075l-.707-4.75zM218.476 456c1.081-1.749-.522-3.227-2.089-1.926-.776.644-1.41 1.566-1.41 2.048 0 1.206 2.738 1.11 3.5-.122zm119.831.064c2.192-.833 2.468-1.54 2.527-6.464.036-3.041-.37-5.798-.902-6.127-.944-.584-7.658 1.29-9.26 2.585-.442.357-.496 2.965-.12 5.796.598 4.51.967 5.146 2.988 5.146 1.268 0 3.414-.421 4.767-.936zm-266.285-4.978c-1.05-1.962-3.046-2.889-3.046-1.415 0 .999 3.254 4.408 3.742 3.92.231-.23-.082-1.358-.696-2.505zm244.555.458c-1.224-4.876-2.6-7.606-4.129-8.193-2.583-.991-2.576.058.037 5.476 2.598 5.383 5.194 7.108 4.092 2.717zm-91.6.456c0-.55-.45-1-1-1s-1 .45-1 1 .45 1 1 1 1-.45 1-1zm-119.59-3.077c1.424-1.692 2.587-3.38 2.585-3.75-.01-1.53-6.634-11.552-7.92-11.981-.95-.317-1.196.052-.772 1.156.405 1.056-.477 2.648-2.534 4.57l-3.156 2.95 1.943 3.665c1.794 3.384 4.93 6.467 6.577 6.467.379 0 1.854-1.384 3.277-3.077zm-4.695-6.234c-.96-1.465-1.287-2.836-.755-3.165 1.09-.673 3.342 3.069 2.809 4.668-.199.595-1.123-.082-2.054-1.503zm74.534 6.315c-1.237-1.004-2.25-2.57-2.25-3.48 0-.91-.5-2.592-1.113-3.736-.878-1.64-.8-2.257.368-2.91 2.35-1.316 1.632-11.187-1.08-14.857-1.197-1.617-2.175-3.422-2.175-4.012 0-.59-.675-1.33-1.5-1.647-.825-.317-1.5-1.235-1.5-2.04 0-2.137-4.835-10.045-6.541-10.7-.802-.307-1.459-1.266-1.459-2.13 0-2.373-3.717-9.17-5.359-9.8-.912-.35-1.659.25-2.029 1.627-1.393 5.198-.352 9.666 3.138 13.464.688.748 1.25 1.778 1.25 2.288 0 1.676 2.843.97 3.311-.821.252-.962.51.185.573 2.55.168 6.215 4.332 14.096 6.499 12.297.774-.642 1.135-.108 1.175 1.738.03 1.466.256 3.657.5 4.87.776 3.864-1.303 2.95-2.739-1.205-.76-2.2-2.268-4.887-3.35-5.972-1.959-1.963-1.969-1.959-1.969.8 0 3.56 2.462 8.313 5.01 9.678 1.095.585 1.99 1.903 1.99 2.927 0 2.987 4.514 10.097 7.633 12.023 3.547 2.19 4.675 1.526 1.617-.952zm171.125-.129c1.107-5.534.755-12.085-.625-11.627-2.047.68-3.071 5.123-2.326 10.094.807 5.382 2.052 6.028 2.951 1.533zm-182.922 1.2c.542-.876-3.591-9.606-5.412-11.432-.475-.476-1.38.122-2.034 1.344-.982 1.835-.852 2.56.783 4.357 1.078 1.186 2.482 3.169 3.12 4.406 1.22 2.366 2.585 2.876 3.543 1.326zm-88.453-4.642c0-.311-1.178-2.111-2.618-4-3.69-4.838-1.612-4.313 2.68.677 2.993 3.478 3.874 3.978 5.5 3.123 1.066-.56 3.176-1.507 4.688-2.104 1.513-.597 2.75-1.859 2.75-2.804 0-1.947-4.832-9.325-6.107-9.325-.46 0-3.436 1.186-6.614 2.636-3.345 1.525-7.206 2.541-9.169 2.411-3.028-.2-3.329.007-2.822 1.943.422 1.616.197 2.026-.884 1.612-1.157-.445-1.24-.165-.412 1.383.572 1.067 1.623 1.716 2.337 1.443.713-.274 2.126.417 3.14 1.537 1.633 1.805 7.531 2.955 7.531 1.468zm103.037-1.89c-.665-.8-.919-1.925-.564-2.5.355-.573.169-1.043-.414-1.043-1.428 0-1.343 2.316.141 3.8 1.685 1.685 2.293 1.499.837-.256zm46.674-1.542c-.288-1.1-.093-2.264.432-2.589.572-.354.448-1.2-.31-2.113-1.092-1.316-1.364-1.142-2.012 1.28-.447 1.672-.311 3.33.337 4.111 1.56 1.88 2.156 1.616 1.553-.689zm19.278-3.04c-.457-1.593-1.118-3.361-1.47-3.93-.351-.569.825-2.371 2.615-4.006 1.79-1.634 2.944-3.28 2.566-3.659-.378-.378-1.526.072-2.55.999-1.925 1.742-11.983 5.635-14.558 5.635-.982 0-1.43-1.01-1.37-3.095.091-3.197-1.432-4.863-4.472-4.89-.962-.008-1.75-.465-1.75-1.015 0-.55.675-1 1.5-1 1.756 0 1.912-1.363.465-4.066-.593-1.109-2.086-1.934-3.5-1.934-1.524 0-2.465-.572-2.465-1.5 0-.825.45-1.5 1-1.5 1.362 0 1.27-4.33-.122-5.723-.815-.815-1.774-.825-3.5-.04-2.953 1.346-2.95 1.426.229 7.93 9.606 19.655 8.485 18.11 13.421 18.506 7.183.576 8.393 1.076 10.263 4.243 2.297 3.888 4.895 3.217 3.698-.956zm82.18 1.539c-.182-1.1-.567-3.447-.855-5.216-.293-1.794-1.252-3.427-2.17-3.693-2.522-.732-8.975-1.093-9.534-.534-.733.733 1.314 9.147 2.605 10.702.71.854 2.767 1.23 5.698 1.04 3.955-.258 4.542-.575 4.256-2.299zm9.831.698c3.262-1.59 3.52-2.064 3.803-6.963.233-4.043-.059-5.396-1.263-5.858-.86-.33-2.122-.14-2.802.422-.68.562-2.955 1.343-5.055 1.735l-3.817.714.684 4.126c.832 5.03 2.12 7.642 3.736 7.578.668-.026 2.79-.816 4.714-1.754zm-172.009.052c-.013-1.042-5.921-11.25-6.51-11.25-1.343 0-.169 4.08 2.243 7.8 2.502 3.859 4.29 5.305 4.267 3.45zm148.647-3.558c-.962-3.831-3.542-9.515-4.622-10.183-2.466-1.523-2.725.916-.693 6.504 1.595 4.385 2.674 5.985 4.036 5.986 1.442 0 1.728-.516 1.279-2.307zm-218.638-1.824c0-1.112-1.024-2.307-2.439-2.845-1.341-.51-2.932-1.849-3.535-2.975-1.271-2.376-4.026-2.75-4.026-.548 0 .825.39 1.5.867 1.5s2.05 1.787 3.495 3.97c2.744 4.147 5.638 4.608 5.638.898zm124.212-.106c2.864-3.207 2.87-3.246.764-4.186-1.494-.667-2.355-.58-2.893.29-.421.682-1.242 1.103-1.824.937-1.314-.376-1.472.5-.668 3.702.804 3.204 1.147 3.15 4.621-.743zm-63.212-.108c0-1.29-.716-3.783-1.591-5.537-1.141-2.287-1.292-3.552-.534-4.466 1.475-1.778-2.752-7.788-4.993-7.098-1.018.313-2.285-.532-3.415-2.277-2.535-3.919-18.773-19.707-23.78-23.124-9.487-6.472-8.49-4.79 5.063 8.556 7.838 7.716 14.25 14.685 14.25 15.487 0 .8 1.09 2.48 2.42 3.73 1.33 1.25 2.978 3.69 3.661 5.424 1.98 5.021 6.306 11.575 7.67 11.614.687.02 1.25-1.019 1.25-2.31zm189.8-1.854c1.426-1.425 1.616-9.425.244-10.273-1.844-1.14-4.02 3.845-3.385 7.755.643 3.962 1.228 4.431 3.141 2.518zm-279.8-1.664c0-.476-1.345-2.388-2.99-4.25-1.645-1.863-3.25-4.17-3.565-5.13-.462-1.398-1.66-1.719-6.05-1.617-3.544.081-5.34.52-5.096 1.243.207.615 1.398 1.129 2.647 1.142 2.152.023 3.128.942 7.351 6.93 1.234 1.748 2.722 2.546 4.75 2.546 1.624 0 2.953-.389 2.953-.864zm9.462-1.022c2.729-1.036 5.116-2.346 5.304-2.91.348-1.046-7.414-13.273-10.443-16.45-.915-.96-1.326-2.085-.912-2.498.414-.414 1.386.114 2.16 1.173.775 1.059 1.735 1.599 2.134 1.2.398-.399.165-1.49-.519-2.427-.684-.936-1.518-2.526-1.852-3.533-.41-1.23-1.257-1.66-2.587-1.313-1.087.284-2.803.002-3.812-.629-1.435-.896-2.613-.774-5.418.564-4.185 1.995-4.517 2.046-4.517.693 0-.56 1.575-1.767 3.5-2.685 1.925-.918 3.5-2.261 3.5-2.984 0-.723.62-1.315 1.378-1.315 1.649 0 4.164-2.792 3.296-3.66-.336-.336-1.84.194-3.341 1.178-1.502.984-2.873 1.382-3.048.885-1.287-3.664-2.015-3.853-7.804-2.028-5.447 1.717-5.724 1.715-7.686-.047-3.343-3.003-13.756-20.744-22.781-38.814-1.066-2.132-1.582-2.516-1.808-1.343-.327 1.696 8.058 20.883 12.598 28.829 1.414 2.475 3.847 5.99 5.406 7.81 3.004 3.508 2.917 5.19-.269 5.19-2.44 0-2.426.478.14 4.632 1.194 1.93 2.901 3.368 4 3.368 1.056 0 1.92.45 1.92 1s-.676 1-1.5 1c-.848 0-1.5.895-1.5 2.059 0 1.132.398 1.812.886 1.511 1.197-.74 3.408 2.046 2.88 3.63-.232.696.513 1.756 1.656 2.356 1.142.599 3.062 1.71 4.266 2.469 1.824 1.15 2.598 1.16 4.654.059 1.357-.726 2.93-1.034 3.496-.684.565.35 2.953-.027 5.306-.838 2.352-.81 4.471-1.28 4.709-1.042.824.825-1.95 3.287-4.395 3.9-1.352.34-2.459 1.125-2.459 1.746 0 1.423 6.866 11.834 7.804 11.833.383 0 2.93-.849 5.658-1.885zM51.844 412.5c-1.136-1.925-2.399-3.5-2.806-3.5-.407 0-1.253-1.125-1.88-2.5-1.758-3.86.377-2.955 2.95 1.25 1.261 2.063 2.873 4.345 3.58 5.071 1.301 1.335 1.739 3.179.755 3.179-.294 0-1.463-1.575-2.6-3.5zm160.585 16.576c.314-.507-.784-1.888-2.44-3.068-3.42-2.434-3.803-1.972-1.263 1.522 1.894 2.604 2.812 2.988 3.703 1.546zm27.961-1.165c.786-.84.74-1.288-.164-1.62-.687-.251-1.25-1.32-1.25-2.374 0-2.23-1.108-2.369-5.679-.716-3.451 1.248-4.253 3.447-2.07 5.676 1.44 1.471 7.479.835 9.163-.966zm82.303-5.454c-.258-3.048-.637-5.687-.843-5.864-.205-.177-3.203-.567-6.662-.866-5.526-.478-6.232-.343-5.825 1.114.255.913.782 3.228 1.17 5.145.91 4.493 2.918 5.943 8.286 5.982l4.342.032-.468-5.543zm10.783 4.126c3.863-1.34 4.01-1.554 4.26-6.235.391-7.287-.3-7.804-7.577-5.66l-6.127 1.807.61 4.002c.744 4.894 2.008 7.508 3.62 7.488.668-.008 3.014-.64 5.214-1.402zm-250.874-4.116c-.697-1.815-2.626-1.938-2.626-.167 0 1.82 2.372 4.085 2.832 2.705.196-.59.104-1.731-.206-2.538zm163.918 1.76c3.887-3.287 4.687-4.928 3.49-7.163-1.425-2.664-2.892-2.566-6.284.42-5.422 4.773-2.687 11.378 2.794 6.744zm-147.71-.01l-2.334-5.497c-2.191-5.163-3.04-5.745-3.995-2.735-.419 1.32.268 3.161 2.051 5.5 2.351 3.082 5.201 4.902 4.278 2.732zm115.408-1.732c-.642-3.36-1.907-3.98-3.198-1.566-.837 1.563-.69 2.187.7 2.997 2.642 1.539 3.024 1.32 2.498-1.43zm-74.242.515c0-.55-.675-1-1.5-1s-1.5.45-1.5 1 .675 1 1.5 1 1.5-.45 1.5-1zm168-.757c0-.966-.496-3.328-1.102-5.25-.606-1.921-1.448-5.293-1.871-7.493-.424-2.2-1.701-8.05-2.84-13-2.34-10.18-4.193-25.622-2.985-24.875.439.27.798 1.266.798 2.212 0 .945.7 2.718 1.557 3.94 1.309 1.869 2.494 2.223 7.441 2.223 3.236 0 6.185-.486 6.552-1.081.372-.602 1.767-.805 3.148-.459 1.579.396 4.305-.202 7.502-1.647l5.022-2.27-.647-5.508c-.737-6.272-2.087-8.348-3.892-5.99-.65.85-3.433 2.595-6.183 3.877-4.035 1.88-6.616 2.32-13.382 2.272-4.61-.033-8.8-.477-9.31-.986-1.474-1.475-5.014-28.124-4.577-34.458.218-3.162.293-5.75.165-5.75-.128 0-.891-.253-1.697-.562-1.925-.739-2.91 4.35-3.015 15.562-.14 15.147 1.304 28.197 3.462 31.271 1.07 1.525 1.686 3.193 1.367 3.708-.724 1.173 1.585 14.021 2.52 14.021.38 0 .959 2.28 1.29 5.069.33 2.787 1.292 6.457 2.138 8.153.847 1.697 1.54 4.299 1.54 5.782 0 5.201 3.691 12.996 6.154 12.996.465 0 .845-.79.845-1.757zm-150.475-1.493c-1.149-4.238-6.024-12.743-7.306-12.746-.705-.002-1.528-.791-1.829-1.754-1.31-4.193-4.803-11.25-5.567-11.25-.459 0-.656 2.568-.438 5.707.335 4.832.861 6.123 3.424 8.413 1.665 1.488 3.564 3.757 4.22 5.043.655 1.285 2.154 3.796 3.331 5.58 2.51 3.803 5.092 4.427 4.165 1.007zm204.659.033c-.718-.717-1.184-.776-1.184-.15 0 .569.3 1.334.667 1.7.367.367.9.434 1.183.15.285-.284-.015-1.049-.666-1.7zm-128.083-.335c2.404-1.243 2.87-1.99 2.338-3.75-1.074-3.56-1.974-3.919-5.807-2.317-3.556 1.485-4.244 2.859-3.025 6.037.766 1.996 2.675 2.005 6.494.03zm-154.1-1.507c0-.518-.956-.941-2.123-.941-1.766 0-1.915.25-.887 1.489 1.25 1.505 3.01 1.184 3.01-.548zm104.15.559c0-.522-.484-1.111-1.076-1.308-.59-.197-1.075.391-1.075 1.308s.484 1.505 1.075 1.308c.592-.197 1.075-.785 1.075-1.308zm159.844-1.486c1.18-2.851.65-12.014-.696-12.014-1.68 0-3.239 4.097-3.267 8.583-.044 7.12 1.78 8.7 3.963 3.43zM136.976 419c0-.55-.476-1-1.059-1-.582 0-.78.45-.44 1s.816 1 1.058 1c.243 0 .441-.45.441-1zm108.725-8.991c-.303-3.358-2.88-3.64-6.31-.69-2.769 2.382-2.786 2.465-1.067 5.088l1.747 2.667 2.927-2.287c2.032-1.588 2.858-3.048 2.703-4.778zM76.976 415c0-.55-.701-1-1.559-1-.857 0-1.28.45-.94 1 .34.55 1.04 1 1.558 1s.941-.45.941-1zm14.979-3.948c1.116-2.695.94-3.337-2.049-7.5-1.798-2.503-3.82-4.552-4.492-4.552-1.342 0-2.438 2.196-2.438 4.885 0 1.871 5.677 10.115 6.965 10.115.436 0 1.342-1.326 2.014-2.948zm141.021-2.49c0-2.402-1.161-4.562-2.453-4.562-2.4 0-7.547 3.164-7.547 4.639 0 .82.467 2.364 1.037 3.429 1.021 1.91 1.09 1.908 5-.086 2.18-1.113 3.963-2.652 3.963-3.42zm87.486-1.812c-.39-3.437-.772-6.3-.848-6.36-.076-.061-3.232-.387-7.013-.724l-6.875-.614.69 5.199c.994 7.501 2.003 8.298 10.909 8.613l3.848.136-.71-6.25zm12.395 3.627c3.192-1.307 3.345-1.593 2.76-5.13-.34-2.061-.624-5.037-.63-6.614-.012-3.188-.745-3.213-8.51-.29-4.2 1.58-4.298 1.841-3.281 8.802.94 6.437 1.43 6.601 9.66 3.232zm24.12.623c0-.55-.477-1-1.06-1-.582 0-.78.45-.44 1s.816 1 1.058 1c.243 0 .441-.45.441-1zm-116.546-6.545c3.316-3.316 3.392-6.455.156-6.455-3.922 0-6.885 3.057-6.079 6.271.855 3.407 2.644 3.462 5.923.184zM343.313 401c.284 0 .723.788.974 1.75.284 1.086.501.715.573-.977.08-1.855-.65-3.228-2.278-4.296-1.547-1.014-2.224-2.22-1.913-3.41.669-2.558-1.698-3.78-3.239-1.673-1.253 1.714-1.126 3.267.78 9.543l1.045 3.437 1.77-2.187c.975-1.203 2.004-2.187 2.288-2.187zm-116.178 1.418c2.701-1.397 2.985-1.948 2.431-4.719-.98-4.9-2.048-5.324-7.074-2.814-4.91 2.452-5.08 2.784-3.355 6.568 1.338 2.937 3.646 3.216 7.998.965zM81.776 399.8c2.055-2.055 1.338-4.754-2.472-9.312-3.944-4.719-4.764-4.87-5.722-1.055-.445 1.774.236 3.714 2.46 7.01 3.294 4.88 3.872 5.219 5.734 3.357zm9.2-.744c0-.52-1.11-2.207-2.468-3.75-2.81-3.195-3.58-1.246-.975 2.471 1.595 2.278 3.443 2.964 3.443 1.279zm166.605-2.785c-1.017-1.017-1.856.514-1.022 1.863.63 1.02.866 1.02 1.205.004.231-.695.149-1.535-.183-1.867zm-108.264-7.573c.402-2.775.16-3.952-.895-4.357-.795-.305-1.453-1.52-1.462-2.698-.01-1.179-1.022-3.76-2.25-5.736-5.756-9.261-7.059-10.977-7.755-10.22-.411.447-.35 3.963.137 7.813.487 3.85.658 7.604.38 8.343-.289.77.35 1.565 1.5 1.866 1.102.288 2.004 1.35 2.004 2.36 0 2.457 2.047 6.902 4.485 9.744l1.985 2.313.66-2.813c.363-1.547.908-4.524 1.21-6.615zm-9.34-9.257c0-.857.457-1.276 1.016-.93.559.345.757 1.046.44 1.558-.857 1.387-1.457 1.129-1.457-.628zm97.972 15.585c3.378-3.156 3.639-5.612.788-7.407-1.327-.835-2.394-.699-4.5.576-3.846 2.328-4.582 3.872-3.363 7.055 1.351 3.529 3.117 3.473 7.075-.224zm80.507 1.007c.329-.532 1.818-.728 3.31-.435 2.889.567 9.186-1.621 10.907-3.79 1.328-1.673-.633-12.808-2.255-12.808-.62 0-3.786.934-7.035 2.075-4.623 1.625-7.598 1.986-13.693 1.664l-7.787-.412.62 4.586c.956 7.06 1.345 7.878 4.25 8.94 3.544 1.297 10.923 1.41 11.683.18zm.187-2.7c-1.053-1.053-.776-6.333.333-6.333.55 0 1 1.575 1 3.5 0 3.597-.182 3.984-1.333 2.833zM63.338 392.5c.643-1.677.479-1.76-1.78-.893-1.954.75-2.083 2.393-.189 2.393.766 0 1.652-.675 1.969-1.5zm68.393.25c-.226-.687-1.48-1.406-2.785-1.596-2.073-.302-2.206-.143-1.05 1.25 1.567 1.887 4.428 2.145 3.835.346zm91.1-.802c2.71-1.653 3.222-2.467 2.669-4.246a75.766 75.766 0 01-1.253-4.702c-.802-3.525-2.192-4.087-5.712-2.306-6.208 3.14-6.536 3.827-4.231 8.838 2.303 5.007 3.65 5.389 8.526 2.416zm-36.355.052c.34-.55-.11-1-1-1s-1.34.45-1 1c.34.55.79 1 1 1 .21 0 .66-.45 1-1zm-97.38-7.23c-.29-6.332-1.353-7.77-5.742-7.77-1.858 0-3.378-.45-3.378-1s.884-1 1.964-1c1.735 0 1.49-.757-2.112-6.5-3.879-6.187-4.262-6.5-7.963-6.5-2.139 0-3.889-.45-3.889-1s.81-1 1.8-1 2.292-.492 2.893-1.093c.79-.79 1.658-.79 3.134 0 2.217 1.187 13.173 1.526 13.173.408 0-.378-.857-1.615-1.904-2.75-1.048-1.136-2.78-3.64-3.85-5.565-1.735-3.12-2.394-3.5-6.076-3.5-4.924 0-6.069-1.865-1.42-2.313 3.553-.343 4.062-1.269 1.75-3.187-1.587-1.317-2.01-3.004-.75-2.994.413.003 1.517 1.354 2.454 3 1.39 2.442 2.357 2.994 5.25 2.994 1.95 0 3.546-.18 3.546-.401 0-1.111-12.756-19.018-13.793-19.363-.71-.237-1.213.558-1.222 1.93-.025 3.748-3.77 17.583-6.136 22.663-4.29 9.215-4.922 11.55-3.356 12.427 2.833 1.585 16.637 17.328 22.405 25.552 1.276 1.819 2.577 3.051 2.89 2.738.313-.313.462-2.912.331-5.777zm-18.513-30.352c-1.214-3.165.267-3.452 2.161-.418 1.026 1.643.999 2-.152 2-.771 0-1.675-.712-2.009-1.582zm9.393.023c0-.857.45-1.28 1-.94.55.339 1 1.04 1 1.558s-.45.941-1 .941-1-.701-1-1.559zm1.67 32.34c-3.127-4.453-4.405-5.78-5.565-5.78-1.522 0-.145 2.53 3.434 6.315 3.057 3.23 4.517 2.864 2.13-.535zm206.82-1.53c-1.199-4.743-1.209-4.751-5.845-5.056-3.503-.23-4.645.047-4.645 1.126 0 1.817 7.975 8.67 10.096 8.676 1.405.003 1.452-.563.394-4.747zm-156.734 1.982c.46-1.378-5.425-4.233-8.724-4.233-2.02 0-2.54 1.512-1.474 4.29.711 1.853 9.578 1.804 10.198-.057zm123.91-3.406c-.688-5.81-2.006-7.886-3.842-6.05-.902.901-.764 1.631.59 3.128 1.129 1.247 1.53 2.697 1.112 4.014-.725 2.283.012 4.081 1.673 4.081.713 0 .872-1.757.467-5.173zm82.937.58c-.243-.633-.757-3.253-1.142-5.822-1.07-7.136-3.036-5.239-2.603 2.512.196 3.521.602 6.809.902 7.305.734 1.213 3.403-2.537 2.843-3.995zm-266.206.392c.734-2.076.38-3.186-1.949-6.104-3.238-4.058-3.936-4.002-4.813.383-.473 2.361-.08 3.809 1.62 5.96 2.625 3.323 3.904 3.264 5.142-.239zm161.335-.33c3.318-3.318 3.493-3.816 2.89-8.21-.352-2.573-1.05-5.087-1.55-5.587-1.312-1.313-10.304 6.433-9.667 8.328 2.448 7.286 3.199 9 3.94 9 .47 0 2.445-1.59 4.387-3.532zm-117.732-1.14c0-1.784-3.618-4.329-6.155-4.329-2.966 0-3.568-.876-1.81-2.635.713-.712-.143-3.105-2.75-7.69-2.082-3.661-4.093-6.66-4.47-6.666-.376-.005-1.813.42-3.192.944l-2.508.954 4.492 6.796c3.17 4.798 6.021 7.742 9.692 10.008 5.291 3.267 6.701 3.817 6.701 2.618zm159.2-3.529c-.641-.642-1.498-.835-1.904-.429-.406.406-.089 1.139.704 1.629 1.868 1.154 2.711.311 1.2-1.2zm-150.377-.48c-.373-1.937-9.513-7.63-10.886-6.78-1.552.959 3.296 6.457 6.52 7.395 4.415 1.284 4.724 1.24 4.366-.615zm92.06-.494c1.99-1.195 3.792-2.307 4.005-2.47.214-.165-.186-2.35-.888-4.856-1.645-5.875-.577-6.982 1.567-1.625.908 2.269 2.082 4.125 2.609 4.125.527 0 2.488-1.167 4.359-2.594 3.227-2.461 3.37-2.834 2.795-7.25-1.054-8.096-3.698-9.179-9.539-3.906-1.98 1.788-6.23 4.6-9.445 6.25-6.193 3.178-6.605 4.135-4.097 9.5 2.691 5.756 3.38 5.982 8.633 2.826zm8.117-17.326c0-.917.484-1.505 1.075-1.308.592.197 1.075.786 1.075 1.308 0 .523-.483 1.111-1.075 1.308-.59.197-1.075-.391-1.075-1.308zm26.106 14.387c2.478-2.653 3.386-3.018 6.15-2.472 1.785.351 4.37.77 5.744.928 1.375.16 3.483.822 4.685 1.473 2.598 1.408 5.974 1.545 6.76.274.309-.5-.295-2.908-1.342-5.351l-1.904-4.442-6.643-.681c-7.443-.763-8.911-.311-8.029 2.468.9 2.835-1.374 2.344-2.709-.584-.681-1.496-1.978-2.505-3.228-2.514-3.39-.022-6.61-1.145-6.02-2.1.302-.487 1.872-.886 3.49-.886 3.504 0 3.586-.648.83-6.51-1.89-4.022-2.463-4.49-5.5-4.49-3.778 0-4.655-1.68-1.14-2.184 1.661-.238 2.188-.91 2.012-2.57-.295-2.783 1.374-2.969 2.238-.248.674 2.124 2.143 2.621 9.828 3.33 7.18.66 8.989-.048 8.214-3.218-.35-1.436-.895-3.735-1.21-5.11-.316-1.375-1.51-3.245-2.653-4.156-1.573-1.252-1.814-1.983-.987-3 .601-.739 1.297-2.244 1.546-3.344.476-2.103.753-1.73 2.231 3 .278.888 1.671 1.5 3.418 1.5 3.665 0 6.113.895 6.113 2.235 0 .63-1.528.776-4 .381-3.56-.57-4-.417-4 1.386 0 1.114.423 2.807.94 3.762.517.955 1.195 2.951 1.507 4.436.525 2.502.983 2.723 6.23 3 7.472.396 8.679 2.8 1.407 2.8-2.796 0-5.084.37-5.084.822 0 .452.718 2.927 1.594 5.5 1.48 4.343 1.838 4.678 5 4.678 2.361 0 3.406.46 3.406 1.5 0 .924-.938 1.5-2.44 1.5-3.401 0-3.753 1.097-1.882 5.862 1.559 3.967 1.805 4.138 5.974 4.138 5.037 0 5.279-.767 2.948-9.346-.77-2.835-1.968-10.441-2.662-16.904-.694-6.462-1.54-11.75-1.878-11.75-.339 0-3.825-2.587-7.747-5.75-3.922-3.162-8.41-6.532-9.972-7.488-4.142-2.533-10.738-7.918-20.017-16.34-4.498-4.082-8.548-7.424-9-7.426-.453-.002-2.988-2.681-5.633-5.954-4.57-5.656-4.76-6.13-3.814-9.558 1.304-4.723-.636-13.677-2.87-13.247-1.982.38-3.32 11.493-2.68 22.263.355 5.965 1.667 11.56 5.158 21.993 2.575 7.695 5.174 14.296 5.775 14.667.6.372 1.238 1.725 1.416 3.008.177 1.283.948 3.907 1.713 5.832 5.883 14.814 11.611 29.704 11.611 30.181 0 1.207 3.055 7.819 3.613 7.819.322 0 1.893-1.4 3.493-3.113zM239.976 335c-.825-.533-3.037-.976-4.916-.985-4.18-.018-3.529-.977 1.059-1.56 4.238-.539 6.857.268 6.857 2.112 0 1.665-.894 1.794-3 .433zm-6.654-16.25c-.255-.412-1.562-.75-2.905-.75-1.342 0-2.44-.498-2.44-1.107 0-.611.728-.828 1.626-.483.895.344 2.245.112 3-.515.996-.826 1.735-.84 2.69-.048.723.6 3.873 1.393 7 1.76 3.125.368 5.683.97 5.683 1.337 0 .922-14.078.736-14.654-.194zm-.267-6.333c.048-1.165.285-1.402.604-.604.29.721.254 1.584-.078 1.916-.333.333-.57-.258-.526-1.312zM126.976 375c-.921-1.722-3-2.818-3-1.582 0 1.614 1.452 3.582 2.642 3.582 1.119 0 1.196-.434.358-2zm-28-.253c0-2.236-7.025-11.228-9.294-11.897-2.933-.865-9.214-1.008-9.994-.229-.342.342 1.126 3.194 3.26 6.338 3.5 5.153 4.176 5.673 6.865 5.278 1.64-.24 3.81.044 4.823.632 2.492 1.449 4.34 1.397 4.34-.122zM69.317 372c-.974-1.65-2.125-3-2.556-3-1.156 0-.971.786.83 3.535 2.313 3.53 3.847 3.055 1.726-.535zm270.66 1.06c0-.518-.45-1.22-1-1.56-.55-.34-1 .084-1 .941s.45 1.559 1 1.559 1-.423 1-.94zm-220.538-1c.892-1.443-5.408-8.06-7.673-8.06-1.371 0-1.822-.474-1.427-1.502.57-1.488-11.21-14.498-13.13-14.498-2.446 0-1.756 1.845 2.953 7.894 7.248 9.312 10.79 12.925 14.814 15.114 4.222 2.296 3.761 2.188 4.463 1.052zM334.976 367c0-2.2.45-4 1-4 1.856 0 1.018-3.92-1.078-5.042-3.79-2.028-4.715-.706-3.642 5.201 1.329 7.313 1.51 7.841 2.689 7.841.567 0 1.031-1.8 1.031-4zm-.92-6.583c.047-1.165.284-1.402.603-.604.29.721.254 1.584-.078 1.916-.333.333-.57-.258-.526-1.312zm-208.661 8.976c2.429-.932 2.057-9.076-.66-14.455l-2.242-4.438-.329 3.345c-.18 1.84.397 5.159 1.284 7.375.886 2.216 1.421 4.22 1.188 4.454-.233.233-2.036-.481-4.006-1.588-4.69-2.634-5.473-1.124-1.455 2.804 3.38 3.305 3.746 3.452 6.22 2.503zm81.998-3.143c.413-.412 1.05-.759 1.417-.77 1.915-.055 7.166-4.136 7.166-5.568 0-2.702-3.993-10.914-5.296-10.893-.662.01-3.33 1.354-5.928 2.986-5.108 3.208-5.064 2.912-1.603 10.745 1.855 4.2 2.781 4.963 4.244 3.5zm-29.417-2.69c0-.243-.45-.72-1-1.06-.55-.34-1-.141-1 .441s.45 1.059 1 1.059 1-.198 1-.44zm91.5-1.15c0-.5-.62-3.047-1.38-5.66l-1.38-4.75h-5.935c-3.265 0-6.78-.451-7.81-1.003-2.854-1.527-3.379.43-1.46 5.454 1.129 2.956 2.643 4.87 4.607 5.82 3.156 1.53 13.358 1.636 13.358.14zm-170.5-2.486c0-.592-2.05-3.742-4.558-7-4.347-5.648-7.449-7.34-8.964-4.888-.896 1.45 5.404 10.97 7.936 11.993 2.97 1.202 5.586 1.153 5.586-.105zm20 .126c0-1.945-6.138-9.96-8.107-10.584-3.09-.98-3.344.068-.952 3.938 3.005 4.863 9.06 9.304 9.06 6.646zm103.924-3.639c2.291-1.928 3.058-3.396 3.003-5.75-.085-3.708-2.947-9.037-5.074-9.449-2.202-.427-6.853 3.624-6.853 5.969 0 2.335 4.147 11.819 5.168 11.819.373 0 2.063-1.165 3.756-2.589zm-102.924-4.296c0-4.694 3.188-6.05 12.696-5.398 4.463.306 8.274.142 8.59-.37.312-.506-.64-3.153-2.119-5.883-2.4-4.434-3.052-4.97-6.11-5.017-1.885-.03-3.605-.592-3.824-1.25-.237-.71.586-1.197 2.017-1.197 1.33 0 2.65-.233 2.936-.519.285-.285-1.222-4.144-3.35-8.576-3.638-7.58-4.03-8.027-6.601-7.543-1.504.282-5.315.798-8.469 1.146-3.154.347-5.932.951-6.173 1.342-.241.39 2.451 6.06 5.983 12.598 3.532 6.538 6.16 12.15 5.841 12.468-1.004 1.005-3.336-2.966-10.816-18.416-10.14-20.945-10.788-22.437-10.337-23.79.22-.66 1.82 1.775 3.556 5.412s3.764 7.118 4.507 7.734c.919.763 3.726.883 8.762.376 8.804-.885 8.797-.86 3.764-12.454-3.807-8.768-3.402-8.599-16.16-6.754-6.635.96-10.693.219-10.693-1.952 0-1.394 3.154-2.19 4.442-1.12.73.605 4.257.706 9.123.26 9.18-.839 9.133-.726 4.5-10.712-1.53-3.3-3.331-7.687-4.002-9.75l-1.218-3.75H99.1c-4.248 0-8.183.46-8.746 1.023-.697.697-2.206.528-4.74-.53-3.538-1.478-4.16-3.493-1.078-3.493 1.704 0 1.838-1.39.395-4.086-.575-1.076-.73-2.467-.344-3.092.41-.663 1.43.7 2.448 3.27l1.744 4.408 7.338-.216c4.547-.135 7.723-.705 8.35-1.5.583-.742 2.538-1.156 4.63-.981 4.421.37 15.252-3.779 15.681-6.006.167-.87-1.857-6.149-4.498-11.731-4.06-8.58-5.112-10.078-6.803-9.686-1.1.255-4.7 1.21-8 2.121-3.3.912-9.804 2.089-14.453 2.616-4.65.526-8.65 1.153-8.89 1.393-.24.24.337 3.188 1.28 6.553.945 3.364 1.487 6.346 1.207 6.627-1.121 1.12-2.599-.958-3.182-4.475-.339-2.043-1.067-5.065-1.617-6.715-1.9-5.69-3.64-13.015-4.335-18.249-.383-2.887-1.112-5.505-1.62-5.819a1.093 1.093 0 01-.347-1.501c.316-.512.1-.931-.484-.931-.582 0-1.059.48-1.059 1.067 0 .702-1.748.846-5.105.42l-5.105-.648.647 5.33c1.334 10.996 1.798 12.984 3.156 13.505.91.349 1.186 1.36.796 2.913-1.062 4.233 5.596 28.66 11.811 43.328 2.292 5.41 1.274 6.899-3.153 4.61-1.75-.906-3.619-1.501-4.152-1.323-1.511.504 8.686 20.503 11.119 21.805 1.179.631 4.358 1.805 7.065 2.609 3.033.9 4.921 2.032 4.921 2.948 0 1.308-.356 1.303-2.95-.038-4.222-2.184-7.05-1.98-7.05.505 0 1.118.687 2.295 1.527 2.618.84.322 2.673 2.541 4.073 4.932 2.588 4.415 6.977 7.42 10.84 7.42 1.619 0 3.511 2.257 7.847 9.362 3.142 5.15 5.713 9.646 5.713 9.992 0 .992 4.27 5.645 5.18 5.645.451 0 .82-1.298.82-2.885zM96.983 323.51c-1.187-1.92-2.005-4.281-1.819-5.248.21-1.09 1.169.237 2.52 3.49 2.539 6.108 2.322 6.65-.701 1.758zm6.576-62.376c-.43-.697-.513-1.537-.183-1.867.895-.895 1.871.421 1.388 1.871-.34 1.016-.575 1.016-1.205-.004zm4.974-7.356c-2.06-2.943-1.993-3.258.99-4.617 3.726-1.698 4.962-1.448 6.435 1.305 1.07 2 1.08 2.756.046 4-1.851 2.23-5.674 1.878-7.472-.688zm225.573 96.951c-1.665-1.665-2.608-.01-1.059 1.857.937 1.129 1.48 1.264 1.755.436.22-.658-.094-1.69-.696-2.293zm-131.546-.014c5.435-3.17 7.644-5.673 7.059-8.003-.995-3.962-4.753-11.849-5.466-11.47-.372.198-2.796 1.362-5.385 2.588-2.59 1.225-4.951 2.619-5.247 3.098-.752 1.216 4.73 15.042 5.955 15.02.55-.01 1.938-.565 3.084-1.233zm-104.584-4.56c0-.465-.9-1.66-2-2.655-1.1-.995-2-2.602-2-3.57 0-1.958-7.56-8.45-8.35-7.171-.798 1.29 5.888 11.419 8.488 12.86 2.786 1.545 3.862 1.695 3.862.536zm11-.666c0-.28-.964-2.563-2.143-5.07-2.146-4.567-4.394-6.625-8.607-7.882-3.269-.976-2.949 2.004.53 4.93 1.528 1.287 3.393 3.487 4.144 4.89 1.197 2.236 2.482 3.087 5.326 3.527.413.064.75-.114.75-.395zm46.337-3.264c4.924-3.3 5.505-5.654 2.737-11.08-2.528-4.956-3.727-5.748-5.887-3.89-2.078 1.789-8.085 4.745-9.64 4.745-2.96 0-3.346 2.234-1.187 6.855 1.194 2.555 2.556 5.253 3.027 5.996 1.203 1.898 5.871.778 10.95-2.626zm62.085-3.405c3.863-4.512 4.526-6.82 1.962-6.82-1.159 0-1.459-.605-1.058-2.137.38-1.45-.145-2.724-1.634-3.966-2.842-2.373-3.598-2.31-7.155.596l-2.962 2.422 1.86 5.292c2.38 6.77 3.42 8.793 4.523 8.793.487 0 2.497-1.881 4.464-4.18zM21.476 339c.34-.55-.11-1-1-1s-1.34.45-1 1c.34.55.79 1 1 1 .21 0 .66-.45 1-1zm291.256-3.25c-.225-.687-2.145-1.394-4.264-1.571-3.407-.284-3.703-.139-2.55 1.25 1.576 1.9 7.424 2.175 6.814.321zM198.2 331.574c3.815-2.163 4.265-2.804 4.168-5.932-.118-3.844-3.84-12.642-5.347-12.642-.52 0-1.305.587-1.745 1.305-.44.718-2.487 2.33-4.55 3.581-2.062 1.253-3.75 2.859-3.75 3.57 0 1.92 2.86 9.67 4.136 11.208 1.504 1.812 2.145 1.714 7.088-1.09zm113.776-1.015c0-1.955-1.938-3.02-3.2-1.759-.564.564-.723 1.515-.353 2.113.98 1.586 3.553 1.33 3.553-.354zm-166.654-2.414c9.043-4.186 9.267-4.67 5.672-12.268-1.659-3.507-3.016-6.94-3.017-7.627 0-1.777-.776-1.592-7.392 1.763-3.24 1.643-6.447 2.987-7.127 2.987-.68 0-1.77.643-2.424 1.43-.944 1.137-.431 2.978 2.505 9 2.03 4.163 4.124 7.57 4.653 7.57.528 0 3.737-1.285 7.13-2.855zM84.976 328c0-1.1.372-2 .827-2 .455 0 .629-1.35.387-3-.41-2.785-1.283-3.514-3.658-3.054-.52.101-1.982-.371-3.249-1.05-3.824-2.046-3.808-.224.052 5.589 3.827 5.764 5.642 6.894 5.642 3.515zm126.99-7.925c.938-2.018.774-2.904-.977-5.272-1.157-1.565-1.864-3.235-1.57-3.711.295-.476-.135-1.421-.954-2.101-.819-.68-1.489-1.856-1.489-2.613 0-2.029-.733-1.72-4.1 1.725-2.025 2.07-2.808 3.652-2.354 4.75.375.906.893 2.547 1.151 3.647.564 2.398 2.379 6.531 3.611 8.222 1.145 1.57 5.058-1.15 6.682-4.647zm80.443-2.577c3.614-3.408 4.364-6.4 1.817-7.248-.687-.23-1.25.296-1.25 1.167 0 .923-.844 1.583-2.024 1.583-1.963 0-3.976 3.323-3.976 6.565 0 2.255 1.426 1.713 5.433-2.067zm-101.473-2.977c5.228-2.65 6.796-5.24 5.096-8.417-1.315-2.457-1.327-3.104-.056-3.104.55 0 1 .852 1 1.893 0 3.035 3.08 3.502 5.547.84 3.763-4.059 4.919-6.893 3.2-7.854-.885-.496-1.301-1.758-1.036-3.144.315-1.648-.598-3.452-3.164-6.253-2.836-3.097-3.483-4.495-3.032-6.55.375-1.708.04-3.057-.97-3.895-.85-.705-1.545-2.072-1.545-3.037 0-2.182-2.791-9-3.684-9-.362 0-1.484.747-2.493 1.66-2.036 1.843-3.711 1.123-2.06-.886 1.45-1.763.995-13.021-.546-13.535-.67-.223-1.217-1.718-1.217-3.322 0-3.52-2.721-3.987-5.478-.94-2.843 3.141-3.875 1.175-1.216-2.317 3.33-4.372 4.136-7.277 2.224-8.01-1.018-.39-1.53-1.917-1.53-4.56 0-2.184-.45-4.25-1-4.59-.55-.34-1-1.716-1-3.059 0-1.503-.576-2.441-1.5-2.441-.833 0-1.5-.889-1.5-2 0-2.389-1.273-2.58-3.035-.458-.877 1.058-1.604 1.22-2.309.514-.706-.706-.342-1.761 1.158-3.357 2.723-2.899 2.79-5.306.186-6.699-1.1-.589-2-1.73-2-2.535 0-.806-.438-1.465-.974-1.465-1.361 0-3.75-5.159-3.3-7.124.698-3.042-2.742-3.013-5.804.048-3.566 3.567-3.642 5.482-.44 11.169 4.294 7.629 10.557 21.202 10.027 21.732-.78.78-.765.808-10.327-18.075-8.587-16.957-9.843-20.338-5.798-15.615l1.829 2.136 3.85-4.386c3.983-4.534 4.892-6.465 2.635-5.6-.716.276-2.338-.576-3.605-1.892-1.266-1.316-2.705-2.393-3.198-2.393-.492 0-.895-.675-.895-1.5s-.726-1.5-1.613-1.5c-1.216 0-1.508.723-1.183 2.931.337 2.3 0 3.045-1.58 3.457-1.9.497-1.917.63-.318 2.398 2.55 2.818 2.143 3.214-3.306 3.214-3.765 0-5 .368-5 1.492 0 .82-.9 2.053-2 2.74-1.1.687-2 1.774-2 2.415 0 .67-.843.945-1.985.647-1.092-.286-2.779-.175-3.75.247-.97.422-2.483.68-3.362.576-.878-.105-2.156.484-2.84 1.308-1.014 1.22-.759 2.525 1.376 7.037 1.441 3.047 3.286 5.538 4.101 5.538s3.49-.944 5.946-2.098l4.464-2.099-1.535-2.968c-.845-1.633-1.351-3.727-1.126-4.652.286-1.171.918-.539 2.08 2.081 1.444 3.256 2.005 3.68 4.15 3.142 2.772-.696 3.29.679.977 2.597-1.329 1.103-1.284 1.611.386 4.373 2.524 4.172 3.521 7.624 2.203 7.624-.578 0-2.191-2.25-3.585-5-1.393-2.75-2.794-5-3.112-5-.319 0-1.773.827-3.233 1.837-1.46 1.01-3.442 2.122-4.405 2.469-.962.347-1.75 1.367-1.75 2.265 0 3.102 7.822 18.429 9.405 18.429.843 0 3.373-.959 5.621-2.13 3.024-1.576 3.913-2.553 3.418-3.75-.369-.891-.877-2.52-1.13-3.62-.368-1.604.026-1.432 1.995.867l2.453 2.867 3.851-2.617c2.119-1.44 4.197-2.617 4.62-2.617 1.781 0 .509 1.808-3.209 4.558-4.442 3.287-4.662 3.99-2.53 8.078.822 1.575 1.497 3.652 1.5 4.614.011 3.212-1.809 1.801-3.547-2.75-.945-2.475-2.35-4.5-3.122-4.5-1.743 0-8.982 3.636-9.767 4.906-.651 1.055 6.89 17.634 8.463 18.607 1.314.812 7.574-1.25 9.431-3.108 1.123-1.123 1.205-2.092.376-4.47-1.542-4.421-.21-4.806 1.83-.528 1.244 2.61 2.185 3.47 3.292 3.01.853-.354 2.45-.896 3.55-1.204 1.767-.494 1.84-.364.628 1.114-.755.92-1.992 1.673-2.75 1.673-2.046 0-1.68 3.068 1.122 9.404 1.375 3.11 2.5 6.315 2.5 7.125 0 1.366 1.75 1.935 4.75 1.546.688-.09 1.25.237 1.25.726 0 1.887-4.392 4.743-8.765 5.699-2.515.55-4.752 1.54-4.97 2.201-.373 1.123 10.667 12.347 12.96 13.178.681.246.82-.976.4-3.5l-.645-3.879 1.542 2.75c.848 1.513 2.037 2.75 2.642 2.75 1.425 0 7.701-3.755 10.582-6.332 1.236-1.105 2.36-1.82 2.5-1.589 2.827 4.683 2.905 5.104.824 4.443-1.422-.451-3.91.492-8.063 3.055-3.304 2.039-6.007 3.88-6.007 4.09 0 .899 7.073 14.333 7.546 14.333.286 0 2.723-1.116 5.414-2.48zm-8.377-41.387c-.43-.697-.513-1.537-.183-1.867.895-.895 1.871.421 1.388 1.871-.34 1.016-.575 1.016-1.205-.004zm-10.504-29.717c.048-1.165.285-1.402.604-.604.29.721.254 1.584-.079 1.916-.332.333-.568-.258-.525-1.312zm-3.079-6.917c0-.825.177-1.5.393-1.5.216 0 .652.675.969 1.5.317.825.14 1.5-.393 1.5s-.969-.675-.969-1.5zm-88 78.595c0-.498-1.575-2.79-3.5-5.095-1.925-2.304-3.5-4.713-3.5-5.354 0-1.643-3.638-3.722-5.359-3.062-.791.304-1.735.072-2.099-.516-.363-.587-1.079-1.068-1.591-1.068-1.547 0 4.897 9.66 8.632 12.939 3.314 2.91 7.417 4.102 7.417 2.156zm226.75-3.039c2.57-2.143 2.84-3.056.905-3.056-.74 0-2.16-.9-3.155-2-2.101-2.322-4.5-2.633-4.5-.583 0 .779-.562 1.623-1.25 1.875-1 .366-1 .723 0 1.783.903.957 1.25.992 1.25.125 0-.66.691-1.2 1.536-1.2 1.189 0 1.31.421.535 1.869-1.848 3.452 1.076 4.194 4.68 1.187zm9.23-.58c-.695-.838-1.47-1.318-1.722-1.067-.694.694.715 2.591 1.924 2.591.663 0 .587-.574-.202-1.524zm-178.19-3.157c2.945-1.393 5.592-3.15 5.882-3.905.29-.755-.35-3.295-1.423-5.643a412.956 412.956 0 01-3.75-8.521c-.992-2.337-2.097-4.25-2.458-4.25-.36 0-3.78 1.574-7.598 3.497-3.818 1.923-7.505 3.498-8.193 3.5-1.892.005-1.591 1.149 2.77 10.547 4.572 9.85 4.26 9.748 14.77 4.775zm13.21-3.378c0-3.188-1.401-3.943-2.415-1.3-.805 2.097.267 5.568 1.487 4.815.51-.316.928-1.897.928-3.515zm-80.982-7.646c-1.11-1.41-2.018-3.297-2.018-4.193 0-.896-1.594-3.996-3.543-6.89-1.95-2.894-3.258-5.724-2.91-6.288.35-.565-.722-3.816-2.38-7.225-1.657-3.41-3.315-7.692-3.684-9.516-.7-3.46-1.587-5.34-5.277-11.183-1.215-1.925-1.998-4.062-1.739-4.75.687-1.824-.543-1.527-2.016.487-1.2 1.64-1.386 1.632-3.367-.16-2.731-2.473-3.526-1.539-2.21 2.598.581 1.829 1.318 4.608 1.636 6.177C44.13 259.516 52.138 268 54.482 268c.822 0 1.494.45 1.494 1s-1.125 1-2.5 1-2.5-.45-2.5-1-.45-1-1-1c-3.084 0 1.271 11.274 4.823 12.482 2.294.78 7.177 5.183 7.177 6.47 0 1.568-2.576 1.263-4.02-.476-2.244-2.704-2.274-.689-.044 2.92 1.19 1.925 3.019 3.772 4.063 4.104 1.045.331 2.154 1.367 2.465 2.301.606 1.82 6.528 5.234 7.804 4.5.422-.242-.14-1.595-1.25-3.006zm80.628-.99c1.287-3.079 1.32-3.874.199-4.778-.74-.596-2.423-2.296-3.741-3.776-1.99-2.234-2.181-2.953-1.128-4.222 1.014-1.221 1.019-1.83.024-3.029-3.047-3.67-7.313.852-5.66 6 1.93 6.01 6.021 13.5 7.375 13.5.763 0 2.082-1.662 2.93-3.694zm10.198-1.866c-.544-2.804-2.844-2.957-2.844-.189 0 1.33.308 2.724.684 3.1 1.061 1.062 2.543-.935 2.16-2.91zm-34.009-6.926c4.923-2.396 7.165-4.048 7.165-5.279 0-.985-1.338-4.929-2.973-8.763-1.635-3.834-2.985-7.935-3-9.114-.042-3.307-2.36-3.48-9.223-.691a836.96 836.96 0 01-8.656 3.473c-2.772 1.074-2.571 2.692 1.596 12.861 3.27 7.977 5.113 11 6.706 11 .67 0 4.444-1.57 8.385-3.487zm-7.88-3.793c-2.534-2.719-2.08-3.966 1.854-5.094 5.888-1.689 8.816 3.945 3.16 6.08-2.651 1-3.28.877-5.015-.986zm-47.322-8.929c-4.48-11.293-4.37-11.122-8.333-13.151-5.037-2.58-5.43-2.07-3.16 4.11 4.325 11.772 6.793 16.239 10.075 18.235 5.192 3.157 5.507 1.115 1.418-9.194zM164.746 284c2.815-1.716 3.175-2.377 2.592-4.746-.373-1.514-1.232-3.653-1.908-4.753-.677-1.1-1.776-3.719-2.443-5.82-.667-2.101-1.763-4.031-2.436-4.29-1.265-.485-10.575 3.114-10.575 4.088 0 .302.404 1.33.898 2.286.493.955 1.712 3.761 2.708 6.236 3.85 9.567 5.38 10.526 11.164 6.999zm-22.852-6.845c.544-1.016.83-3.604.637-5.75a800.828 800.828 0 01-.453-5.175c-.056-.7-1.227-1.784-2.602-2.41-1.575-.719-2.5-1.962-2.5-3.363 0-2.321-2.96-3.792-5.596-2.78-2.3.882-1.614 4.352 2.584 13.074 4.008 8.328 6.028 9.958 7.93 6.404zm75.082.78c0-.586-.503-2.006-1.118-3.156-.937-1.75-.751-2.368 1.137-3.792 1.92-1.448 2.157-2.284 1.59-5.594-.998-5.82-2.958-12.392-3.696-12.392-1.032 0-1.879 6.92-1.238 10.123.467 2.337.28 2.797-.945 2.327-2.754-1.057-2.787 1.285-.106 7.467 2.389 5.509 4.376 7.787 4.376 5.017zm-3-9.493c0-.857.45-1.28 1-.941.55.34 1 1.042 1 1.56 0 .517-.45.94-1 .94s-1-.702-1-1.559zm-65 8.059c0-.825-.45-1.5-1-1.5s-1 .675-1 1.5.45 1.5 1 1.5 1-.675 1-1.5zm93.608-16.073c.365-1.454.156-3.064-.48-3.7-.62-.62-1.128-2.828-1.128-4.907s-.618-5.476-1.373-7.55c-1.376-3.78-2.47-8.492-5.112-22.037-.78-3.996-1.77-7.821-2.2-8.5-.43-.678-.865-3.363-.967-5.967-.102-2.604-.897-6.16-1.767-7.904-.87-1.743-1.58-5.659-1.58-8.701 0-3.932-.528-6.13-1.824-7.597-1.003-1.135-2.595-5.46-3.537-9.61-.943-4.152-2.659-9.101-3.813-11l-2.1-3.45-1.386 5.417c-1.314 5.134-1.255 5.762 1.112 11.998 1.374 3.62 3.655 10.144 5.068 14.499 1.413 4.355 2.88 8.405 3.26 9 .381.595 1.495 4.007 2.475 7.582 4.789 17.456 6.716 25.47 8.777 36.5 1.234 6.6 2.631 12.428 3.105 12.95.474.523.862 1.985.862 3.25 0 3.111 1.806 2.922 2.608-.273zM67.03 256.458c-.512-1.627-1.46-4.983-2.108-7.458-2.517-9.618-2.61-9.722-12.327-13.877-2.015-.862 2.817 16.175 5.637 19.877 2.223 2.919 7.91 6.166 8.986 5.13.408-.392.323-2.045-.188-3.672zm143.23.975c-.12-1.567.487-3.627 1.348-4.579 1.74-1.922 1.403-5.972-1.339-16.104-2.095-7.742-4.293-7.316-4.293.832 0 1.88-.377 3.418-.84 3.418-.46 0-1.299 1.013-1.862 2.25-1.078 2.371-.154 6.528 3.126 14.07 1.883 4.33 4.186 4.398 3.86.113zm-2.645-11.933c-.317-.825-.14-1.5.393-1.5.532 0 .968.675.968 1.5s-.177 1.5-.393 1.5c-.216 0-.652-.675-.968-1.5zM138.976 256c0-.55-.476-1-1.059-1-.582 0-.78.45-.44 1s.816 1 1.058 1c.243 0 .441-.45.441-1zm-97.782-2.968c-.523-3.567-3.218-6.395-3.218-3.377 0 1.603 2.53 6.345 3.384 6.345.148 0 .074-1.335-.166-2.968zm90.72-.17c1.496-2.46 1.666-3.524.786-4.933-.617-.988-1.37-1.773-1.673-1.744-2.38.225-3.05-.577-3.05-3.651 0-1.906-.769-5.077-1.708-7.046-1.382-2.9-2.19-3.524-4.241-3.284-1.427.166-2.675 1.035-2.855 1.987-.457 2.409 8.048 21.786 9.568 21.799.696.006 2.123-1.402 3.173-3.127zm-93.334-8.591c-1.016-1.017-1.855.514-1.02 1.863.63 1.02.865 1.02 1.204.004.231-.695.149-1.535-.184-1.867zm7.675-1.939c-.491-3.029-.328-3.565.94-3.078 1.27.487 1.404.04.774-2.583-1.407-5.855-2.071-6.78-4.361-6.069-1.172.365-2.282 1.053-2.465 1.53-.693 1.804-2.046.765-2.35-1.805-.174-1.47-.947-2.88-1.718-3.134-1.082-.356-1.26.247-.782 2.641.453 2.265.191 3.342-.97 3.992-1.408.788-1.364 1.05.388 2.282 1.088.766 2.277 2.336 2.641 3.49.365 1.154 1.78 2.607 3.144 3.229 1.364.622 2.48 1.59 2.48 2.152 0 .561.647 1.021 1.437 1.021 1.097 0 1.296-.87.842-3.668zM41.135 237c0-1.375.226-1.937.504-1.25.277.688.277 1.813 0 2.5-.278.688-.505.125-.505-1.25zm161.67-.445c.18-1.535-.666-5.445-1.879-8.69-1.785-4.772-2.467-5.68-3.578-4.759-1.765 1.465-1.755 6.224.021 10.243.766 1.733 1.667 3.976 2 4.984.873 2.632 3.05 1.505 3.435-1.778zm-97.643-.666l8.001-2.158-.684-4.564c-.608-4.052-.51-4.419.868-3.275.853.709 1.825 2.148 2.158 3.198.726 2.29 2.757 2.475 4.471.41.993-1.197.993-1.803 0-3-.82-.99-.873-1.5-.154-1.5 1.99 0 .051-2.809-2.356-3.413-1.835-.46-2.323-1.208-2.177-3.334.175-2.554-.13-2.777-4.49-3.284-2.574-.3-4.447-.17-4.165.287.283.457 0 1.453-.631 2.212-.973 1.172-1.672 1.16-4.63-.076-3.498-1.461-4.496-1.286-7.542 1.32-1.476 1.264-1.506 1.996-.286 7.099 1.655 6.923 1.722 8.19.431 8.19-.55 0-1-1.132-1-2.515 0-1.382-.401-3.294-.892-4.25-2.036-3.96-3.441-7.81-3.254-8.91.11-.647-.263-1.46-.827-1.81-.565-.348-1.027.071-1.027.934 0 1.31-.323 1.365-1.975.334-1.558-.974-2.233-.976-3.2-.008-.673.673-2.035 1.224-3.025 1.224-.99 0-1.799.338-1.798.75 0 2.091 3.008 17.456 3.6 18.415 1.001 1.62 14.923.331 24.584-2.276zm-44.186-4.264c0-7.034-1.072-10.7-3.39-11.597-1.16-.449-3.188-1.975-4.505-3.391-2.98-3.205-4.128-2.586-4.024 2.172.169 7.748 2.132 12.255 6.42 14.737 2.2 1.273 4.337 2.347 4.75 2.385.412.038.75-1.9.75-4.306zm-27.906-5.931c-.792-.792-1.094-.532-1.094.94 0 2.643 1.399 4.046 1.844 1.85.19-.933-.148-2.189-.75-2.79zm171.887 1.056c-.04-4.528-2.063-16.232-2.961-17.13-.565-.565-1.405.13-2.162 1.793-.993 2.18-.975 3.642.09 7.402.731 2.577 1.543 5.923 1.804 7.435.57 3.3 3.257 3.717 3.229.5zm-160.107-.5c-3.25-3.958-6.139-10.468-4.967-11.192 1.545-.955.287-4.058-1.645-4.058-1.183 0-1.396.783-.955 3.5.312 1.925.146 3.5-.37 3.5-.515 0-.944-1.237-.952-2.75-.01-1.512-.452-3.425-.985-4.25-.684-1.06-.969.261-.969 4.5 0 7.016 1.06 9.5 3.271 7.665 1.18-.98 1.553-.827 1.983.814A2.663 2.663 0 0041.883 226c1.151 0 2.093.45 2.093 1s.52 1 1.155 1c.766 0 .671-.59-.281-1.75zm219.126-1.69c0-1.056-1.919-1.5-2.49-.576-.345.559.074 1.016.931 1.016.858 0 1.56-.198 1.56-.44zm-68.423-6.114c.544-2.903-.125-5.333-3.648-13.25-2.373-5.333-4.49-9.92-4.703-10.194-.76-.975-3.226 3.42-3.226 5.75 0 1.304 1.8 6.194 4 10.868s4 8.922 4 9.44c0 .517.655.94 1.455.94.875 0 1.72-1.416 2.122-3.554zm-121.91-5.696c-1.403-5.565-3.247-11.355-3.982-12.5-.48-.748-2.986-1.25-6.244-1.25-6.274 0-6.463.422-3.806 8.5.904 2.75 1.792 5.563 1.973 6.25.219.829 2.401 1.25 6.477 1.25 5.878 0 6.123-.1 5.581-2.25zm-16.334.676c1.327-.51 1.327-1.1-.001-5.25C54.45 199.256 53.774 198 51.823 198c-1.051 0-3.462-.648-5.357-1.44-1.895-.792-3.647-1.114-3.893-.716-.491.794 2.994 14.071 3.95 15.049.325.334 2.474 1.125 4.773 1.759 2.3.633 4.256 1.196 4.349 1.25.092.054.84-.16 1.664-.476zm30.324-.193c.864-.55.804-1.748-.235-4.734-1.57-4.514-1.814-7.499-.61-7.499.445 0 1.38 2.224 2.077 4.942 1.782 6.952 2.84 7.584 9.842 5.875 6.144-1.5 7.395-3.153 5.446-7.198-.562-1.166-1.277-3.244-1.59-4.619-1.167-5.128-1.77-5.386-8.566-3.662-3.417.867-6.825 2.085-7.573 2.706-.748.62-1.815.847-2.371.503-.556-.343-3.276-.324-6.044.043-5.878.78-6.115 1.538-2.9 9.277 2.134 5.133 2.134 5.133 6.75 5.118 2.54-.008 5.138-.347 5.774-.752zm-56.425-3.667c.536-2.8-.792-4.566-3.432-4.566-2.191 0-2.323 1.32-.3 3 .825.685 1.5 2.116 1.5 3.182 0 2.632 1.648 1.44 2.232-1.616zm11.76-.816c0-.137-1.35-5.65-2.992-12.25-3.194-12.846-3.445-14.5-2.2-14.5 1 0 3.2 5.955 3.2 8.66 0 2.429 3.737 4.34 8.484 4.34 3.316 0 3.378-.077 2.823-3.5-1.004-6.183 1.499-3.863 4.045 3.75.465 1.39 1.743 1.75 6.205 1.75h5.62l-.697-4.12c-.547-3.24-.406-4.023.662-3.67.747.247 1.583 1.988 1.858 3.87l.5 3.42h6c5.75 0 5.998-.104 5.94-2.5-.032-1.375-.4-3.512-.817-4.75-.458-1.36-.353-2.25.265-2.25.562 0 1.314 1.56 1.672 3.466.753 4.016 2.87 5.051 8.259 4.04 7.398-1.388 8.505-3.547 5.596-10.92-.529-1.342-.405-1.698.415-1.191.644.398 1.17 1.547 1.17 2.553 0 1.007.81 2.831 1.801 4.055l1.801 2.224 5.45-2.277c2.996-1.252 5.884-2.662 6.417-3.132.93-.82-2.896-9.532-4.798-10.926-.455-.334-4.505.672-9 2.237-13.268 4.619-18.227 3.654-22.275-4.334-1.34-2.644-2.71-6.806-3.045-9.25-.585-4.27-.497-4.467 2.27-5.09 10.238-2.307 23.669-7.862 29.293-12.116 2.428-1.836 4.759-3.339 5.179-3.339 1.438 0 3.408 2.653 6.829 9.195l3.421 6.545-2.13 4.533c-1.173 2.493-3.5 5.508-5.172 6.698-1.673 1.191-3.04 2.714-3.04 3.386 0 1.11 2.393 6.3 4.329 9.386 1.506 2.4 12.67-4.949 12.67-8.34 0-.844.486-1.22 1.09-.847 1.44.89 8.91-6.454 8.91-8.759 0-.988-.562-1.806-1.25-1.817-.687-.011-2.254-2.226-3.482-4.92-2.044-4.488-2.108-5.139-.756-7.73.812-1.557 1.479-3.634 1.482-4.616.01-1.587-.401-1.51-3.647.696-3.344 2.273-3.883 2.364-6.37 1.078-2.196-1.135-6.977-8.672-6.977-10.997 0-.292 1.125-2.313 2.5-4.491 2.928-4.637 3.332-7.64.54-4.006-1.599 2.08-2.017 2.23-2.527.899-.337-.877-.477-2.168-.312-2.869.655-2.787-2.035-1.888-4.3 1.436-1.32 1.94-2.974 3.53-3.675 3.533-.702.004-1.687 1.091-2.191 2.416-2.034 5.35-15.143 13.028-28.153 16.489-14.868 3.955-24.982 3.673-26.124-.73-.852-3.283 5.895-20.974 14.742-38.657l9-17.988 4-.709c4.924-.872 40.191-1.123 41.53-.295 1.474.91 1.158 2.481-.498 2.481-.936 0-1.246.58-.855 1.601.338.88 0 1.981-.753 2.446-1.107.684-1.043.97.336 1.5 1.306.5 1.474 1.083.72 2.492-.62 1.159-.633 2.058-.033 2.428.524.324 1.441-.324 2.038-1.439 1.52-2.839 2.42-2.55 4.585 1.472 1.27 2.358 2.598 3.5 4.072 3.5 1.548 0 3.088 1.465 5.272 5.015 1.698 2.758 3.086 5.501 3.086 6.096 0 .594.783 2.406 1.74 4.027 1.527 2.583 1.557 3.067.25 3.923-1.296.848-1.266 1.108.228 1.99.945.557 2.423 2.461 3.284 4.231 2.253 4.635 4.227 7.004 5.289 6.347 1.561-.965 3.486-12.24 2.782-16.296a229.228 229.228 0 01-1.236-8.288c-.314-2.45-1.558-6.05-2.765-8-1.207-1.95-2.788-5.017-3.513-6.816-2.06-5.109-3.022-4.782-2.78.943.186 4.41-.075 5.316-1.628 5.634-2.096.43-7.096-3.903-9.24-8.006-.776-1.485-1.41-4.226-1.41-6.09 0-3.529-3.352-17.794-4.717-20.079C125.898 70.351 113.272 59 112.099 59c-.618 0-1.123.665-1.123 1.478 0 1.091-1.23.698-4.696-1.5-6.214-3.94-9.304-3.978-9.304-.111 0 2.506.646 3.135 5.134 5 2.823 1.173 5.687 2.133 6.365 2.133 2.343 0 6.501 4.134 6.501 6.464 0 1.607.73 2.502 2.374 2.915 1.394.35 2.899 1.865 3.648 3.674 1.638 3.953-.027 5.84-6.174 6.999-4.955.934-29.694 1.436-30.51.62-1.229-1.23.963-2.635 3.223-2.067 2.21.554 2.44.307 2.44-2.625 0-2.295-1.02-4.365-3.5-7.112-3.642-4.03-4.088-5.391-2.562-7.803.664-1.049-.253-2.581-3.4-5.684-4.059-4.001-7.93-5.615-13.951-5.817-1.052-.035-2.102-.626-2.333-1.314-.607-1.8 6.8-1.618 11.475.282 2.095.852 5.083 3.303 6.724 5.516 1.624 2.19 3.424 3.826 4 3.635.575-.192 1.409-2.786 1.852-5.766 1.239-8.324 1.522-8.796 3.613-6.024 2.572 3.41 3.52 1.108 2.058-4.992-1.037-4.322-1.954-5.575-6.729-9.202-5.96-4.527-12.29-8.586-13.498-8.656-1.61-.093-.644 2.856 1.118 3.415 1.028.326 2.673 1.482 3.655 2.568 3.67 4.054-1.477 1.657-9.451-4.401-5.383-4.09-5.495-4.123-13.29-3.916-7.83.209-19.782 2.837-19.782 4.351 0 .824 6.394 3.401 18.5 7.456 13.117 4.394 18.989 7.066 19.321 8.793.445 2.311-2.848 2.203-7.19-.235-4.57-2.568-17.295-7.626-21.5-8.547-5.73-1.255-3.207 1.682 3.447 4.011 7.275 2.548 11.639 4.813 13.43 6.972 1.663 2.003.99 2.537-7.008 5.56-3.025 1.143-9.209 4.033-13.742 6.422-4.533 2.389-8.488 3.944-8.79 3.456-.65-1.052 8.261-6.235 17.955-10.443 3.808-1.653 7.11-3.574 7.338-4.27.446-1.358-2.472-2.765-15.26-7.354-11.578-4.155-13.974-3.783-17.309 2.685-.816 1.583-5.192 21.003-5.192 23.042 0 .845 3.13.328 4.968-.82 4.248-2.653 3.236.697-1.53 5.068-5.304 4.864-9.864 11.646-8.89 13.22.798 1.293 5.191 1.156 6.021-.188.378-.611.07-1.493-.684-1.959-1.06-.655-.464-1.778 2.622-4.946 7.507-7.705 23.551-17.316 24.999-14.974.862 1.396 3.494 1.236 3.494-.211 0-.662 1.438-2.687 3.196-4.5 3.525-3.637 8.203-4.589 7.609-1.548-.199 1.016-1.241 1.75-2.485 1.75-2.42 0-7.144 3.98-8.31 7-.426 1.1-.375 2.76.111 3.69.541 1.033.495 1.93-.118 2.308-2.135 1.32-.85 2.351 2.294 1.841 2.283-.37 3.695-.054 4.595 1.031.976 1.175 2.38 1.417 5.633.972 5.18-.71 9.776.26 9.21 1.945-.27.8-2.248 1.116-5.821.928-4.776-.251-5.208-.12-3.664 1.11.963.768 1.75 2.186 1.75 3.152 0 1.37-.595 1.642-2.711 1.238-1.818-.348-3.126.026-3.969 1.133-1.08 1.42-1.26 1.125-1.288-2.098-.026-3.1-.386-3.75-2.077-3.75-1.851 0-3.348 1.277-8.341 7.114C45.702 88.15 44.526 89 43.976 89c-1.856 0-1.017-2.524 2.096-6.3 1.926-2.336 2.861-4.37 2.474-5.378-.543-1.417-.924-1.338-3.011.623-1.314 1.235-2.652 3.29-2.973 4.567-.32 1.278-2.158 3.297-4.084 4.487-1.926 1.19-3.502 2.525-3.502 2.966 0 1.745 12.518 2.192 17.063.61 8.671-3.02 11.258-.931 3.24 2.615-11.888 5.259-37.964 1.948-44.242-5.617-1.616-1.947-4.06-2.056-4.06-.18 0 .766-.676 1.652-1.5 1.969C3.41 90.155 3.346 99 5.408 99c1.54 0 2.07 1.257 3.16 7.5.383 2.2 1.532 5.073 2.552 6.385 1.02 1.312 1.856 3.046 1.856 3.855 0 .808 1.136 3.732 2.525 6.497 1.389 2.766 2.282 5.793 1.986 6.728-.312.981.312 2.47 1.474 3.522 1.108 1.003 2.015 2.584 2.015 3.513 0 .93.9 2.505 2 3.5 2.026 1.834 2.707 4.5 1.15 4.5-2.65 0-13.15-9.94-13.15-12.448 0-.352-1.125-1.853-2.5-3.335-1.816-1.959-2.5-2.263-2.5-1.11 0 3.414 9.593 19.007 12.798 20.8.913.51 1.709 2.371 1.819 4.25.108 1.839.656 4.806 1.22 6.593 1.288 4.091-.2 4.323-4.163.649-3.083-2.859-4.992-2.512-2.335.424.913 1.009 1.66 2.947 1.66 4.306s.426 2.899.945 3.421c.52.523 1.532 3.601 2.25 6.841.735 3.315 2.05 6.361 3.008 6.965 2.396 1.511 2.916.542 1.798-3.356-.532-1.852-.729-3.605-.439-3.895.87-.87 5.228 5.19 5.855 8.145 1.993 9.391 1.992 9.333.233 7.874-1.073-.89-1.65-.977-1.65-.246 0 .617-.45 1.122-1 1.122s-1-.868-1-1.929c0-2.007-2.46-5.071-4.07-5.071-1.405 0-1.114 3.417.564 6.636.822 1.575 1.497 3.625 1.5 4.555 0 .93.41 1.94.902 2.244 1.074.664 2.347-2.233 1.549-3.525-.31-.5-.076-.91.518-.91 1.187 0 2.263 2.352 3.934 8.604.893 3.344 1.7 4.298 4.35 5.148 3.094.993 6.763 1.535 6.746.998zm-9.797-12.25c.02-1.65.245-2.204.498-1.23.254.972.237 2.322-.037 3-.274.676-.481-.12-.46-1.77zm17.884-11.083c.048-1.165.285-1.402.604-.604.29.721.254 1.584-.079 1.916-.332.333-.568-.258-.525-1.312zm5.421-4.375c-7.965-.757-16.934-3.353-20.266-5.865-2.28-1.72-8.234-14.86-8.234-18.174 0-4.198 7.25-3.353 9.56 1.114 1.79 3.461 2.111 3.511 4.4.685 1.764-2.18 1.829-2.183 7.66-.507 3.234.93 7.23 1.806 8.88 1.948 2.66.228 3.417 1.106 6.68 7.757 2.024 4.125 3.711 8.262 3.75 9.193.064 1.529-3.609 5.02-4.902 4.66-.29-.08-3.678-.445-7.528-.811zM33.811 146.25c-4.106-4.447-21.835-42.378-21.835-46.717 0-2.327 1.933-2.807 4.509-1.12 2.626 1.721 9.032 4 14.309 5.09 4.296.888 4.774 2.41 2.632 8.366-1.944 5.407-1.425 9.186.986 7.184.908-.753 2.78-.916 5.239-.456 3.541.664 3.72.589 2.398-1.006-.785-.948-2.697-2.38-4.25-3.183-3.243-1.676-3.638-4.36-.994-6.753 2.897-2.622 4.511-2.104 3.844 1.233-.409 2.043-.057 3.36 1.203 4.5 1.979 1.79 5.124 2.166 5.124.612 0-.55.842-1 1.871-1 1.03 0 2.942-1.572 4.25-3.493 2.938-4.313 4.266-4.4 5.927-.391 1.135 2.739 1.082 3.232-.44 4.083-.95.533-1.652 1.943-1.558 3.135.405 5.114.082 5.61-3.554 5.473-4.398-.165-5.276.674-3.156 3.016 2.511 2.775 2.107 4.327-.93 3.565-2.377-.597-2.49-.488-1.362 1.317 1.802 2.885-.053 7.82-2.9 7.716-1.992-.074-2.032.05-.55 1.687 1.793 1.98 1.127 3.892-1.357 3.892-1.276 0-1.374.267-.44 1.2 1.733 1.733 1.509 2.338-1.348 3.64-3.715 1.692-4.795 1.467-7.618-1.59zm2.165-17.703c0-1.276-2.433-5.547-3.16-5.547-1.14 0-1.056 1.727.195 4.066.908 1.696 2.965 2.724 2.965 1.481zm30.575-68.214c-.852-2.22 1.028-4.13 2.558-2.6 1.224 1.224.515 4.267-.994 4.267-.509 0-1.213-.75-1.564-1.667zm17.065-9.027C82.42 50.111 82.97 48 84.476 48c.825 0 1.5.648 1.5 1.441 0 1.67-1.427 2.798-2.36 1.865zM196.992 200.6c-1.315-8.232-6.711-20.303-8.346-18.669-1.514 1.514-1.032 9.607.768 12.884.811 1.477 2.644 5.34 4.072 8.583 3.403 7.726 4.986 6.464 3.506-2.798zm-79.515 4.7c3.99-1.903 4.026-2.601.606-11.915-1.187-3.233-2.269-4.744-3.2-4.469-8.01 2.366-10.98 3.741-11.48 5.315-.79 2.49 2.58 7.982 5.874 9.575 1.485.717 2.7 1.73 2.7 2.25 0 1.37 1.461 1.17 5.5-.757zm-88-4.299c-.34-.55-1.069-1-1.619-1s-.722.45-.382 1c.34.55 1.068 1 1.618 1s.722-.45.382-1zm100.758-2.072c2.333-1.69 4.573-3.665 4.979-4.389.692-1.237-4.61-14.539-5.796-14.539-.296 0-2.991 1.57-5.99 3.488-5.288 3.383-6.395 5.09-4.575 7.062.483.523 1.644 3.313 2.58 6.2 1.003 3.088 2.292 5.25 3.132 5.25.786 0 3.337-1.382 5.67-3.072zm-109.259-.369c0-.242-.45-.719-1-1.059-.55-.34-1-.141-1 .441s.45 1.059 1 1.059 1-.198 1-.44zm124.5-3.559c.345-.558-.403-.993-1.69-.985-1.858.013-2.016.205-.81.985 1.861 1.203 1.757 1.203 2.5 0zm37.893-.582c1.356-3.532.423-7.923-2.974-13.997-3.982-7.12-5.23-8.328-6.515-6.3-1.59 2.512-.944 5.4 3.06 13.682 3.97 8.209 5.295 9.572 6.43 6.615zm-39.886-6.767c4.3-4.3 4.338-4.397 3.36-8.75-.967-4.306-4.193-8.901-6.249-8.901-1.36 0-8.614 7.105-8.63 8.453-.02 1.792 5.467 13.492 6.341 13.52.456.015 2.786-1.93 5.178-4.322zM28.976 182.8c0-1.615-.295-1.904-1.113-1.087-.612.612-.81 1.602-.44 2.2 1.034 1.674 1.553 1.302 1.553-1.113zm156.382-3.352c1.32-3.438-1.2-14.39-4.474-19.44-1.784-2.754-3.619-5.008-4.076-5.008-.848 0-1.36 5.015-1.08 10.599.152 3.07 6.765 15.401 8.258 15.401.427 0 1.044-.698 1.372-1.552zm-12.969-8.957c.67-2.668-1.19-7.232-3.847-9.436-.861-.715-1.566-1.872-1.566-2.57 0-1.475-1.944-2.384-3.75-1.754-2.463.859-1.292 6.11 2.5 11.218 4.191 5.642 5.737 6.232 6.663 2.542zm1.414-15.241c-.306-6.148-.896-8.522-2.856-11.488-1.359-2.055-2.997-3.743-3.641-3.75-.702-.007-1.443 2.534-1.852 6.35-.65 6.067-.526 6.597 2.67 11.446 4.911 7.449 6.149 6.892 5.679-2.558zm-11.39-3.333c1.35-7.778 1.13-13.83-.673-18.417-2.618-6.664-4.204-5.68-6.203 3.85l-1.77 8.433 2.756 6.142c1.516 3.377 3.25 5.976 3.853 5.775.603-.2 1.52-2.803 2.037-5.783zm19.105-5.167c-.273-1.237-.964-5.82-1.534-10.182-.571-4.362-1.202-8.096-1.402-8.296-.2-.2-.664 1.629-1.029 4.065-.557 3.712.19 9.514 1.98 15.413.68 2.234 2.496 1.318 1.985-1zm-116.604-1.634c.578-1.08 2.619-2.169 4.785-2.553 9.735-1.726 9.614-2.825-.473-4.292-8.188-1.191-8.63-1.078-9.705 2.479-.565 1.872-.298 2.25 1.588 2.25 1.763 0 2 .267 1.067 1.2-1.622 1.623-1.511 2.8.265 2.8.806 0 1.919-.848 2.473-1.884zm23.459-6.649c4.025-2.655 10.766-10.6 10.213-12.04-.833-2.173-1.939-1.715-3.813 1.58-2.186 3.84-3.435 3.778-5.154-.257-2.598-6.098-8.879-9.75-16.766-9.75-3.225 0-4.065.463-5.351 2.95-3.51 6.787.026 10.288 8.239 8.157 9.044-2.347 14.91-.85 14.055 3.59-.233 1.212-2.04 2.245-5.582 3.192-4.067 1.087-5.238 1.84-5.238 3.367 0 1.721.456 1.881 3.647 1.283 2.005-.377 4.592-1.309 5.75-2.072zm82.603-.502c0-1.505-3.076-5.965-4.115-5.965-1.373 0-1.046 2.325.672 4.778 1.631 2.328 3.443 2.953 3.443 1.187zm-66.564-17.277c1.107-3.13.124-4.53-2.167-3.086-2.904 1.832-3.954 4.337-2.269 5.41 2.134 1.36 3.362.716 4.436-2.324zm-5.084-9.526c-2.133-.479-2.643.344-1.82 2.936l.713 2.248 1.308-2.423c1.114-2.063 1.084-2.473-.2-2.761zm-15.348-.912c0-.962.897-3.215 1.99-5.006 1.091-1.791 2.272-5.054 2.623-7.25.598-3.736.482-3.994-1.786-3.994-3.867 0-12.83 10.239-12.83 14.656 0 1.645.704 2.318 2.75 2.628 6.045.916 7.25.744 7.253-1.034zm24.643.985c1.46-.935 2.042-4.355 1.02-5.985-1.38-2.2-4.58-1.44-5.255 1.248-1.109 4.415 1.02 6.796 4.235 4.737zm-8.227-7.365c-.789-1.276-2.42-.055-2.42 1.812 0 1.27.279 1.332 1.49.327.818-.68 1.237-1.642.93-2.139zm10.818-5.082c.222-.667.207-2.242-.033-3.5-.336-1.754-1.11-2.288-3.321-2.288-3.11 0-3.697 1.61-1.848 5.066 1.147 2.143 4.57 2.618 5.202.722zM12.049 74.25c.04-3.712.491-9.225 1.002-12.25a399.376 399.376 0 001.547-10l.618-4.5-3.515 3.761C6.831 56.471 2.401 66 4.848 66c.48 0 1.168 1.913 1.53 4.25C7.405 76.89 9 81 10.554 81c1.082 0 1.44-1.614 1.495-6.75zm91.927 3.917c0-1.302-1.188-2.168-2.155-1.57-1.035.639-.143 2.403 1.214 2.403.518 0 .941-.375.941-.833zm-2.756-29.394c-3.492-3.492-4.263-3.885-4.813-2.453-.8 2.083 1.181 4.68 3.57 4.68.965 0 2.324.686 3.02 1.524.695.839 1.516 1.273 1.823.966.307-.307-1.313-2.43-3.6-4.717zM8.976 45.421c0-3.925 10.301-16.004 17.272-20.252 3.682-2.244 12.554-4.65 20.978-5.69 7.051-.87 7.986.975 1 1.972-8.348 1.192-12.25 2.53-12.25 4.201 0 1.19.674 1.436 2.75 1.006 10.09-2.086 13.446-2.545 19-2.598 3.438-.033 6.25-.43 6.25-.883 0-.452-2.137-1.83-4.75-3.062-2.612-1.232-5.44-2.605-6.283-3.05-.843-.446-2.975-1.127-4.738-1.515-1.763-.387-3.462-1.12-3.776-1.627-.314-.508-1.878-.923-3.477-.923C37.268 13 29 10.255 26.79 8.298c-.928-.822-2.145-1.21-2.706-.864-.56.346-2.661-.057-4.669-.896-2.008-.838-3.973-1.325-4.367-1.081-1.896 1.17-6.507 22.246-7.666 35.03-.525 5.796-.41 7.634.444 7.107.633-.392 1.151-1.37 1.151-2.173zm61.265-17.019c.973-.973-.363-3.402-1.872-3.402-.766 0-1.393.6-1.393 1.333 0 2.215 1.91 3.425 3.265 2.07zM215.976 604c0-.55.675-1 1.5-1s1.5.45 1.5 1-.675 1-1.5 1-1.5-.45-1.5-1zm122.597.156c-.346-.56-.142-1.319.454-1.687 1.537-.95 2.529.351 1.246 1.635-.719.718-1.278.735-1.7.052zM264.976 603c0-.55.702-1 1.56-1 .857 0 1.28.45.94 1-.34.55-1.041 1-1.559 1-.517 0-.94-.45-.94-1zm-2.666-8c0-3.235 1.077-3.977 2.06-1.418.994 2.592.694 4.418-.727 4.418-.815 0-1.333-1.167-1.333-3zm77.296 1c.404-1.375.75-3.287.767-4.25.043-2.377 2.603-2.24 2.603.14 0 1.038-.923 2.95-2.053 4.25l-2.052 2.36.735-2.5zm-125.63-1.5c0-.825.45-1.5 1-1.5s1 .675 1 1.5-.45 1.5-1 1.5-1-.675-1-1.5zm7.334-.666c.334-1.28-.174-3.223-1.242-4.75-3.064-4.38-4.147-6.931-3.192-7.522.822-.508 3.425 2.939 6.93 9.176 1.04 1.85 1.068 2.681.127 3.814-1.789 2.156-3.27 1.75-2.623-.718zm-9.297-4.237c-.502-1.321-1.391-2.698-1.975-3.059-1.206-.745-1.453-3.542-.312-3.531 1.01.009 5.25 6.312 5.25 7.805 0 2.096-2.019 1.269-2.963-1.215zm63.963.903c0-.825.45-1.5 1-1.5s1 .675 1 1.5-.45 1.5-1 1.5-1-.675-1-1.5zm52.955-2.586c-1.287-2.403-.313-4.095 1.084-1.885.981 1.551 1.284 3.971.497 3.971-.256 0-.968-.938-1.581-2.086zm-55.35-1.504c-.834-2.17.395-4.02 1.505-2.267 1.126 1.778 1.125 3.857-.003 3.857-.491 0-1.168-.716-1.503-1.59zm-14.526-2.089c-.043-.648-.72-1.82-1.504-2.604-1.631-1.63-4.575-8.284-4.575-10.34 0-.757.45-1.377 1-1.377s1 .478 1 1.062c0 .584 1.16 3.515 2.58 6.513 1.418 2.998 2.353 6.008 2.078 6.688-.357.885-.522.901-.579.058zm75.496-1.125c.411-.933 1.012-3.82 1.336-6.417.463-3.709.889-4.535 1.985-3.851.768.479 1.125 1.576.794 2.44-.331.862-.172 1.834.354 2.159.526.325.956 1.59.956 2.813 0 1.564-.913 2.566-3.086 3.386-2.761 1.043-3.007.987-2.339-.53zm13.617.729c.197-.591.786-1.075 1.308-1.075.523 0 1.112.484 1.309 1.075.197.591-.392 1.075-1.309 1.075-.916 0-1.505-.484-1.308-1.075zm-76.192-5.425c0-.825.45-1.5 1-1.5s1 .675 1 1.5-.45 1.5-1 1.5-1-.675-1-1.5zm51 .5c0-.55.45-1 1-1s1 .45 1 1-.45 1-1 1-1-.45-1-1zm6-.472c0-.776.458-1.693 1.017-2.038.559-.345.786-1 .506-1.454-.281-.454-.059-3.208.493-6.12.654-3.449.664-5.637.027-6.273-.636-.637-1.2-.396-1.617.69-.357.931-1.726 1.667-3.1 1.667-1.954 0-2.337-.387-1.863-1.882.383-1.207.026-2.1-.996-2.492-.877-.337-1.313-1.065-.971-1.619.814-1.316 4.504-1.307 4.504.012 0 .924 4.754.355 5.971-.714.828-.727-2.398-2.323-4.47-2.211-3.193.171-6.5-1.208-6.5-2.71 0-.761.004-1.721.01-2.134.007-.412.57-.762 1.25-.776.682-.015 1.827-.395 2.546-.845.719-.45 2.519-.461 4-.026 1.481.435 3.368.835 4.193.89.825.055 1.324.754 1.108 1.554-.216.8-.354 5.39-.306 10.203.048 4.813-.332 8.75-.845 8.75-.513 0-1.216 1.772-1.563 3.938-.592 3.701-3.394 6.665-3.394 3.59zm1-26.528c0-.55-.675-1-1.5-1s-1.5.45-1.5 1 .675 1 1.5 1 1.5-.45 1.5-1zm-127 24.906c0-1.207-.795-2.301-1.878-2.584-1.033-.27-2.373-1.578-2.978-2.907-.606-1.328-1.56-2.415-2.122-2.415-.562 0-1.022-.675-1.022-1.5 0-2.569 1.532-1.688 6.855 3.94 5.562 5.88 6.26 7.56 3.145 7.56-1.363 0-2-.667-2-2.094zm66.198-5.024c-.574-2.264-.789-4.785-.475-5.6.313-.816-.056-1.87-.819-2.341-.981-.607-1.075-1.17-.322-1.923 1.84-1.839 4.105 2.051 4.794 8.232.507 4.545.351 5.75-.745 5.75-.79 0-1.838-1.775-2.433-4.118zm55.802 1.677c0-.792.45-1.719 1-2.059.55-.34 1 .309 1 1.441 0 1.132-.45 2.059-1 2.059s-1-.648-1-1.44zM206.7 570.897c-2.582-2.942-3.433-4.897-2.133-4.897 1.165 0 6.41 5.52 6.41 6.747 0 2.046-1.384 1.447-4.277-1.85zM222.976 568c0-.55.675-1 1.5-1s1.5.45 1.5 1-.675 1-1.5 1-1.5-.45-1.5-1zm33.697-.393c-.409-1.041-.508-2.129-.22-2.417.912-.912 1.714.583 1.332 2.482-.35 1.74-.404 1.737-1.112-.065zm-28.697-4.416c0-.995.709-2.682 1.575-3.75 1.519-1.873 1.554-1.854 1.013.559-.308 1.375-.566 3.063-.574 3.75-.008.688-.464 1.25-1.014 1.25s-1-.814-1-1.809zm22 .868c0-.517.45-1.219 1-1.559.55-.34 1 .084 1 .941s-.45 1.559-1 1.559-1-.423-1-.94zm-31-2.452c0-1.316-.703-2.663-1.563-2.993-1.535-.589-1.13-2.614.524-2.614.748 0 5.04 6.435 5.04 7.557 0 .244-.9.443-2 .443-1.443 0-2-.667-2-2.393zm74.568-1.498c-.655-1.06 3.927-4.28 4.82-3.388.684.684-2.242 4.279-3.484 4.279-.432 0-1.033-.4-1.336-.89zm-27.884-1.759c-.376-.376-.684-1.77-.684-3.1 0-2.768 2.3-2.615 2.844.19.383 1.975-1.099 3.972-2.16 2.91zm-68.14-1.28c-.317-.513-.119-1.214.44-1.56 1.193-.737 3.016.199 3.016 1.55 0 1.216-2.706 1.224-3.457.01zm32.63-2.59c-1.423-3.121-1.444-3.48-.209-3.48 1.522 0 3.352 4.084 2.3 5.135-.559.56-1.378-.088-2.092-1.655zm120.493 1.853c-.367-.366-.667-1.746-.667-3.065 0-1.32-.475-3.287-1.055-4.371-1.29-2.412-.331-5.897 1.623-5.897 1.068 0 1.432 1.385 1.432 5.441 0 2.993.45 5.72 1 6.059.55.34 1 1.042 1 1.56 0 1.077-2.337 1.27-3.333.273zm-137.511-4.455c-1.675-2.682-.603-3.754 1.575-1.576 1.102 1.102 1.344 2.023.701 2.666-.642.643-1.429.266-2.276-1.09zm84.382.164c-1.641-1.814-1.635-2.04.116-4.445 2.573-3.531 3.346-3.22 3.346 1.344 0 4.704-1.11 5.699-3.462 3.1zm1.83-9.257c-.322-.52-1.667-.676-2.99-.344l-2.403.604 2.193-2.523c1.206-1.387 2.787-2.522 3.513-2.522s1.32-.723 1.32-1.607c0-1.031-.538-1.39-1.5-1-.826.334-2.076.842-2.78 1.13-.703.286-2.165-.136-3.25-.94-1.96-1.451-1.96-1.468.03-2.954 2.837-2.12.688-4.388-2.358-2.486-1.651 1.031-2.351 1.049-3.318.082-2.18-2.181-2.825-1.32-2.825 3.775 0 5.29-1.357 6.697-2.41 2.5-.494-1.967-1.263-2.5-3.609-2.5-3.534 0-3.867-1.136-.736-2.513 2.943-1.295 3.61-4.487.936-4.487-2.29 0-3.273-1.931-2.496-4.904.315-1.204.073-2.096-.568-2.096-.614 0-1.117-1.035-1.117-2.3s-.455-2.755-1.012-3.312c-.557-.557-1.173-2.91-1.37-5.227-.196-2.319-1.032-4.99-1.857-5.938-.825-.948-1.31-2.244-1.077-2.881.232-.637-.052-1.451-.63-1.81-1.373-.847-1.37-5.532.002-5.532 1.599 0 6.212 10.811 6.532 15.308.155 2.179.762 4.441 1.348 5.027.585.586 1.065 1.839 1.065 2.784 0 2.627 3.311 7.864 5 7.907.825.02 2.329.666 3.342 1.434 1.013.767 3.56 1.686 5.661 2.04 2.1.355 4.604 1.513 5.563 2.573.959 1.06 2.36 1.927 3.114 1.927 1.453 0 2.639 2.5 3.625 7.642.53 2.765.304 3.2-1.876 3.616-1.362.26-2.74.048-3.062-.473zm-14.368-1.356c0-.961 3.064-3.699 3.572-3.191.887.887-.777 3.762-2.179 3.762-.766 0-1.393-.257-1.393-.571zm62-1.012c0-.871.535-1.405 1.188-1.188 1.854.618 2.162 2.771.396 2.771-.871 0-1.584-.712-1.584-1.583zm-15-3.476c0-1.132.45-1.78 1-1.441.55.34 1 1.267 1 2.06 0 .792-.45 1.44-1 1.44s-1-.927-1-2.059zm-78.816-1.472c.174-1.392.766-2.531 1.316-2.531s1.143 1.139 1.317 2.531c.225 1.804-.153 2.531-1.317 2.531-1.163 0-1.542-.727-1.316-2.531zm90.816-4.41c0-.517.472-1.233 1.049-1.589.722-.446.7-1.068-.073-2-.617-.743-1.037-2.165-.933-3.16.103-.996.1-2.035-.007-2.31-.108-.275-.354-2.93-.548-5.9-.199-3.041-.928-5.754-1.67-6.213-1.053-.651-.971-1.161.408-2.541.95-.95 2.016-1.437 2.37-1.083 1.082 1.082 2.735 10.01 2.588 13.983-.076 2.06.274 4.828.777 6.151.7 1.844.502 2.78-.852 4.004-1.997 1.808-3.11 2.043-3.11.658zm-94.964-5.993c-1.383-2.584-1.31-3.066.464-3.066.825 0 1.5.413 1.5.918 0 .505.273 1.63.607 2.5.868 2.263-1.334 1.96-2.571-.352zm-19.737-4.566c-.918-1.925-2.036-3.5-2.484-3.5-.448 0-.815-.675-.815-1.5 0-3.61 3.939-.707 5.63 4.148 1.62 4.656 1.595 4.352.354 4.352-.559 0-1.767-1.575-2.685-3.5zm72.284-11.75c-2.604-7.837-5.195-15.203-5.758-16.369-.562-1.165-.842-2.965-.623-4 .598-2.818 2.967 2.125 6.775 14.138 1.74 5.49 4.033 12.09 5.094 14.666 2.294 5.57 2.319 5.815.588 5.815-.838 0-3.12-5.351-6.076-14.25zm-50.928 11c.425-.687.789-2.6.809-4.25.028-2.336.534-3.07 2.286-3.32 1.514-.214 2.25.195 2.25 1.25 0 .864.45 1.57 1 1.57s1-.927 1-2.059c0-1.132.45-1.78 1-1.441 3.305 2.042-1.508 9.5-6.131 9.5-2.135 0-2.766-.357-2.214-1.25zm-5.655-1.683c0-1.077.918-2.224 2.076-2.59 2.73-.868 3.337-.117 1.97 2.437-1.403 2.623-4.046 2.723-4.046.153zm-2.345-6.896c-.91-1.006-1.655-2.768-1.655-3.916 0-1.149-.397-2.238-.883-2.422-.486-.183-1.211-2.753-1.612-5.71-.888-6.565.72-6.263 2.41.453 1.483 5.89 3.768 9.353 6.976 10.573 2.056.781 2.261 1.143 1.075 1.893-2.273 1.438-4.5 1.13-6.31-.87zm-20.655-2.671c0-.825.45-1.5 1-1.5s1 .675 1 1.5-.45 1.5-1 1.5-1-.675-1-1.5zm35.447-1.587c-.37-.598-.172-1.588.44-2.2.818-.817 1.113-.528 1.113 1.087 0 2.415-.52 2.787-1.553 1.113zm68.184-1.163c-.854-3.186-.774-8.75.126-8.75.83 0 3.243 7.06 3.243 9.484 0 2.366-2.696 1.779-3.37-.734zm-110.016-6.215c-.888-1.355-1.615-3.129-1.615-3.94 0-.813-.45-1.755-1-2.095-1.254-.775-1.318-3.5-.082-3.5.504 0 1.69 2.025 2.636 4.5.945 2.475 2.107 4.5 2.582 4.5.476 0 .864.675.864 1.5 0 2.254-1.568 1.807-3.385-.965zM233.976 498c0-.55.45-1 1-1s1 .45 1 1-.45 1-1 1-1-.45-1-1zm19.298-3.5c.104-3.688 1.075-4.577 2.095-1.918 1.053 2.743.66 5.418-.794 5.418-.953 0-1.369-1.118-1.301-3.5zm13.702-5c0-.825.45-1.5 1-1.5s1 .675 1 1.5-.45 1.5-1 1.5-1-.675-1-1.5zm-37.322-5.25c.098-2.062.21-3.963.25-4.222.04-.26.761.51 1.604 1.713 1.265 1.808 1.31 2.539.259 4.223-1.83 2.93-2.314 2.536-2.113-1.713zm34.926 1.16c-.833-2.17.396-4.02 1.506-2.267 1.126 1.778 1.125 3.857-.003 3.857-.491 0-1.168-.716-1.503-1.59zm-14.525-2.089c-.043-.648-.72-1.82-1.504-2.604-1.631-1.63-4.575-8.284-4.575-10.34 0-.757.45-1.377 1-1.377s1 .478 1 1.062c0 .584 1.16 3.515 2.58 6.513 1.418 2.999 2.353 6.008 2.078 6.688-.357.885-.522.901-.579.059zm12.921-5.821c0-.825.45-1.5 1-1.5s1 .675 1 1.5-.45 1.5-1 1.5-1-.675-1-1.5zm22.75-.58c-1.89-1.1-2.406-3.92-.718-3.92.567 0 1.29.675 1.607 1.5.316.825 1.202 1.5 1.968 1.5s1.393.45 1.393 1c0 1.272-1.992 1.235-4.25-.08zm-25.552-6.038c-.574-2.264-.789-4.785-.475-5.6.313-.816-.056-1.87-.819-2.341-.981-.607-1.075-1.17-.322-1.923 1.84-1.839 4.105 2.051 4.794 8.232.507 4.545.351 5.75-.745 5.75-.79 0-1.838-1.775-2.433-4.118zm22.802-1.382c0-.825.45-1.5 1-1.5s1 .675 1 1.5-.45 1.5-1 1.5-1-.675-1-1.5zm-35.303-2.893c-.409-1.041-.508-2.129-.22-2.417.912-.912 1.714.583 1.332 2.482-.35 1.74-.404 1.737-1.112-.065zm-7.646-5.012c-.707-1.322-.961-2.93-.564-3.574.474-.767 1.204-.243 2.118 1.519.768 1.479 1.395 3.087 1.395 3.574 0 1.72-1.678.856-2.949-1.519zm16.633-4.245c-.376-.376-.684-1.77-.684-3.1 0-2.768 2.3-2.615 2.844.19.383 1.975-1.099 3.972-2.16 2.91z"
    fill="#fff" />
</svg>